<?xml version="1.0" encoding="UTF-8" standalone="no"?>
<!-- Created with Inkscape (http://www.inkscape.org/) -->

<svg
   width="732.93359"
   height="690.7146"
   viewBox="0 0 193.922 182.75157"
   version="1.1"
   id="svg5"
   xml:space="preserve"
   inkscape:version="1.2.2 (732a01da63, 2022-12-09)"
   sodipodi:docname="abstract summary figure v6.svg"
   inkscape:export-filename="abstract summary figure v6.png"
   inkscape:export-xdpi="96"
   inkscape:export-ydpi="96"
   xmlns:inkscape="http://www.inkscape.org/namespaces/inkscape"
   xmlns:sodipodi="http://sodipodi.sourceforge.net/DTD/sodipodi-0.dtd"
   xmlns="http://www.w3.org/2000/svg"
   xmlns:svg="http://www.w3.org/2000/svg"><sodipodi:namedview
     id="namedview7"
     pagecolor="#ffffff"
     bordercolor="#000000"
     borderopacity="0.25"
     inkscape:showpageshadow="2"
     inkscape:pageopacity="1"
     inkscape:pagecheckerboard="false"
     inkscape:deskcolor="#d1d1d1"
     inkscape:document-units="mm"
     showgrid="false"
     inkscape:zoom="1"
     inkscape:cx="308"
     inkscape:cy="326"
     inkscape:window-width="1920"
     inkscape:window-height="974"
     inkscape:window-x="-11"
     inkscape:window-y="-11"
     inkscape:window-maximized="1"
     inkscape:current-layer="layer1"
     inkscape:pageshadow="2"
     fit-margin-top="0"
     fit-margin-left="0"
     fit-margin-right="0"
     fit-margin-bottom="0"
     units="px"><inkscape:grid
       type="xygrid"
       id="grid9363"
       originx="-44.118619"
       originy="-7.3338926" /></sodipodi:namedview><defs
     id="defs2"><marker
       style="overflow:visible"
       id="Arrow5"
       refX="0"
       refY="0"
       orient="auto-start-reverse"
       inkscape:stockid="Arrow5"
       markerWidth="5.166595"
       markerHeight="5.6665726"
       viewBox="0 0 5.166595 5.6665725"
       inkscape:isstock="true"
       inkscape:collect="always"
       preserveAspectRatio="xMidYMid"><path
         transform="scale(0.5)"
         style="fill:context-stroke;fill-rule:evenodd;stroke:context-stroke;stroke-width:1pt"
         d="m 6,0 c -3,1 -7,3 -9,5 0,0 0,-4 2,-5 -2,-1 -2,-5 -2,-5 2,2 6,4 9,5 z"
         id="path8893" /></marker><style
       type="text/css"
       id="style4681">*{stroke-linejoin: round; stroke-linecap: butt}</style><path
       id="mf556e23a4e"
       d="M 0,0 V 3.5"
       style="stroke:#000000;stroke-width:0.8" /><path
       id="DejaVuSans-30"
       d="m 2034,4250 q -487,0 -733,-480 -245,-479 -245,-1442 0,-959 245,-1439 246,-480 733,-480 491,0 736,480 246,480 246,1439 0,963 -246,1442 -245,480 -736,480 z m 0,500 q 785,0 1199,-621 414,-620 414,-1801 0,-1178 -414,-1799 -414,-620 -1199,-620 -784,0 -1198,620 -414,621 -414,1799 0,1181 414,1801 414,621 1198,621 z"
       transform="scale(0.015625)" /><path
       id="DejaVuSans-2e"
       d="m 684,794 h 660 V 0 H 684 Z"
       transform="scale(0.015625)" /><path
       id="DejaVuSans-33"
       d="m 2597,2516 q 453,-97 707,-404 255,-306 255,-756 0,-690 -475,-1069 -475,-378 -1350,-378 -293,0 -604,58 -311,58 -642,174 v 609 q 262,-153 574,-231 313,-78 654,-78 593,0 904,234 311,234 311,681 0,413 -289,645 -289,233 -804,233 h -544 v 519 h 569 q 465,0 712,186 247,186 247,536 0,359 -255,551 -254,193 -729,193 -260,0 -557,-57 -297,-56 -653,-174 v 562 q 360,100 674,150 314,50 592,50 719,0 1137,-327 419,-326 419,-882 0,-388 -222,-655 -222,-267 -631,-370 z"
       transform="scale(0.015625)" /><path
       id="DejaVuSans-32"
       d="M 1228,531 H 3431 V 0 H 469 v 531 q 359,372 979,998 621,627 780,809 303,340 423,576 121,236 121,464 0,372 -261,606 -261,235 -680,235 -297,0 -627,-103 -329,-103 -704,-313 v 638 q 381,153 712,231 332,78 607,78 725,0 1156,-363 431,-362 431,-968 0,-288 -108,-546 -107,-257 -392,-607 -78,-91 -497,-524 Q 1991,1309 1228,531 Z"
       transform="scale(0.015625)" /><path
       id="DejaVuSans-34"
       d="M 2419,4116 825,1625 h 1594 z m -166,550 h 794 V 1625 h 666 V 1100 H 3047 V 0 H 2419 V 1100 H 313 v 609 z"
       transform="scale(0.015625)" /><path
       id="DejaVuSans-36"
       d="m 2113,2584 q -425,0 -674,-291 -248,-290 -248,-796 0,-503 248,-796 249,-292 674,-292 425,0 673,292 248,293 248,796 0,506 -248,796 -248,291 -673,291 z m 1253,1979 v -575 q -238,112 -480,171 -242,60 -480,60 -625,0 -955,-422 -329,-422 -376,-1275 184,272 462,417 279,145 613,145 703,0 1111,-427 408,-426 408,-1160 0,-719 -425,-1154 -425,-434 -1131,-434 -810,0 -1238,620 -428,621 -428,1799 0,1106 525,1764 525,658 1409,658 238,0 480,-47 242,-47 505,-140 z"
       transform="scale(0.015625)" /><path
       id="DejaVuSans-38"
       d="m 2034,2216 q -450,0 -708,-241 -257,-241 -257,-662 0,-422 257,-663 258,-241 708,-241 450,0 709,242 260,243 260,662 0,421 -258,662 -257,241 -711,241 z m -631,268 q -406,100 -633,378 -226,279 -226,679 0,559 398,884 399,325 1092,325 697,0 1094,-325 397,-325 397,-884 0,-400 -227,-679 -226,-278 -629,-378 456,-106 710,-416 255,-309 255,-755 Q 3634,634 3220,271 2806,-91 2034,-91 1263,-91 848,271 434,634 434,1313 q 0,446 256,755 257,310 713,416 z m -231,997 q 0,-362 226,-565 227,-203 636,-203 407,0 636,203 230,203 230,565 0,363 -230,566 -229,203 -636,203 -409,0 -636,-203 -226,-203 -226,-566 z"
       transform="scale(0.015625)" /><path
       id="m17ed84fc15"
       d="M 0,0 H -3.5"
       style="stroke:#000000;stroke-width:0.8" /><path
       id="DejaVuSans-2212"
       d="M 678,2272 H 4684 V 1741 H 678 Z"
       transform="scale(0.015625)" /><path
       id="DejaVuSans-31"
       d="M 794,531 H 1825 V 4091 L 703,3866 v 575 l 1116,225 h 631 V 531 H 3481 V 0 H 794 Z"
       transform="scale(0.015625)" /><clipPath
       id="pcd0251023e"><rect
         x="57.599998"
         y="41.472"
         width="357.12"
         height="266.112"
         id="rect4985" /></clipPath><style
       type="text/css"
       id="style6655">*{stroke-linejoin: round; stroke-linecap: butt}</style><path
       id="m9b800ebb45"
       d="M 0,0 V 3.5"
       style="stroke:#000000;stroke-width:0.8" /><path
       id="DejaVuSans-30-0"
       d="m 2034,4250 q -487,0 -733,-480 -245,-479 -245,-1442 0,-959 245,-1439 246,-480 733,-480 491,0 736,480 246,480 246,1439 0,963 -246,1442 -245,480 -736,480 z m 0,500 q 785,0 1199,-621 414,-620 414,-1801 0,-1178 -414,-1799 -414,-620 -1199,-620 -784,0 -1198,620 -414,621 -414,1799 0,1181 414,1801 414,621 1198,621 z"
       transform="scale(0.015625)" /><path
       id="DejaVuSans-2e-6"
       d="m 684,794 h 660 V 0 H 684 Z"
       transform="scale(0.015625)" /><path
       id="DejaVuSans-33-1"
       d="m 2597,2516 q 453,-97 707,-404 255,-306 255,-756 0,-690 -475,-1069 -475,-378 -1350,-378 -293,0 -604,58 -311,58 -642,174 v 609 q 262,-153 574,-231 313,-78 654,-78 593,0 904,234 311,234 311,681 0,413 -289,645 -289,233 -804,233 h -544 v 519 h 569 q 465,0 712,186 247,186 247,536 0,359 -255,551 -254,193 -729,193 -260,0 -557,-57 -297,-56 -653,-174 v 562 q 360,100 674,150 314,50 592,50 719,0 1137,-327 419,-326 419,-882 0,-388 -222,-655 -222,-267 -631,-370 z"
       transform="scale(0.015625)" /><path
       id="DejaVuSans-32-0"
       d="M 1228,531 H 3431 V 0 H 469 v 531 q 359,372 979,998 621,627 780,809 303,340 423,576 121,236 121,464 0,372 -261,606 -261,235 -680,235 -297,0 -627,-103 -329,-103 -704,-313 v 638 q 381,153 712,231 332,78 607,78 725,0 1156,-363 431,-362 431,-968 0,-288 -108,-546 -107,-257 -392,-607 -78,-91 -497,-524 Q 1991,1309 1228,531 Z"
       transform="scale(0.015625)" /><path
       id="DejaVuSans-34-4"
       d="M 2419,4116 825,1625 h 1594 z m -166,550 h 794 V 1625 h 666 V 1100 H 3047 V 0 H 2419 V 1100 H 313 v 609 z"
       transform="scale(0.015625)" /><path
       id="DejaVuSans-36-2"
       d="m 2113,2584 q -425,0 -674,-291 -248,-290 -248,-796 0,-503 248,-796 249,-292 674,-292 425,0 673,292 248,293 248,796 0,506 -248,796 -248,291 -673,291 z m 1253,1979 v -575 q -238,112 -480,171 -242,60 -480,60 -625,0 -955,-422 -329,-422 -376,-1275 184,272 462,417 279,145 613,145 703,0 1111,-427 408,-426 408,-1160 0,-719 -425,-1154 -425,-434 -1131,-434 -810,0 -1238,620 -428,621 -428,1799 0,1106 525,1764 525,658 1409,658 238,0 480,-47 242,-47 505,-140 z"
       transform="scale(0.015625)" /><path
       id="DejaVuSans-38-6"
       d="m 2034,2216 q -450,0 -708,-241 -257,-241 -257,-662 0,-422 257,-663 258,-241 708,-241 450,0 709,242 260,243 260,662 0,421 -258,662 -257,241 -711,241 z m -631,268 q -406,100 -633,378 -226,279 -226,679 0,559 398,884 399,325 1092,325 697,0 1094,-325 397,-325 397,-884 0,-400 -227,-679 -226,-278 -629,-378 456,-106 710,-416 255,-309 255,-755 Q 3634,634 3220,271 2806,-91 2034,-91 1263,-91 848,271 434,634 434,1313 q 0,446 256,755 257,310 713,416 z m -231,997 q 0,-362 226,-565 227,-203 636,-203 407,0 636,203 230,203 230,565 0,363 -230,566 -229,203 -636,203 -409,0 -636,-203 -226,-203 -226,-566 z"
       transform="scale(0.015625)" /><path
       id="m14985558a2"
       d="M 0,0 H -3.5"
       style="stroke:#000000;stroke-width:0.8" /><path
       id="DejaVuSans-2212-6"
       d="M 678,2272 H 4684 V 1741 H 678 Z"
       transform="scale(0.015625)" /><path
       id="DejaVuSans-31-7"
       d="M 794,531 H 1825 V 4091 L 703,3866 v 575 l 1116,225 h 631 V 531 H 3481 V 0 H 794 Z"
       transform="scale(0.015625)" /><clipPath
       id="pef82df0c46"><rect
         x="57.599998"
         y="41.472"
         width="357.12"
         height="266.112"
         id="rect6959" /></clipPath><style
       type="text/css"
       id="style89353">*{stroke-linejoin: round; stroke-linecap: butt}</style><path
       id="m116f7a7b32"
       d="M 0,0 V 3.5"
       style="stroke:#000000;stroke-width:0.8" /><path
       id="DejaVuSans-30-02"
       d="m 2034,4250 q -487,0 -733,-480 -245,-479 -245,-1442 0,-959 245,-1439 246,-480 733,-480 491,0 736,480 246,480 246,1439 0,963 -246,1442 -245,480 -736,480 z m 0,500 q 785,0 1199,-621 414,-620 414,-1801 0,-1178 -414,-1799 -414,-620 -1199,-620 -784,0 -1198,620 -414,621 -414,1799 0,1181 414,1801 414,621 1198,621 z"
       transform="scale(0.015625)" /><path
       id="DejaVuSans-2e-5"
       d="m 684,794 h 660 V 0 H 684 Z"
       transform="scale(0.015625)" /><path
       id="DejaVuSans-33-9"
       d="m 2597,2516 q 453,-97 707,-404 255,-306 255,-756 0,-690 -475,-1069 -475,-378 -1350,-378 -293,0 -604,58 -311,58 -642,174 v 609 q 262,-153 574,-231 313,-78 654,-78 593,0 904,234 311,234 311,681 0,413 -289,645 -289,233 -804,233 h -544 v 519 h 569 q 465,0 712,186 247,186 247,536 0,359 -255,551 -254,193 -729,193 -260,0 -557,-57 -297,-56 -653,-174 v 562 q 360,100 674,150 314,50 592,50 719,0 1137,-327 419,-326 419,-882 0,-388 -222,-655 -222,-267 -631,-370 z"
       transform="scale(0.015625)" /><path
       id="DejaVuSans-36-1"
       d="m 2113,2584 q -425,0 -674,-291 -248,-290 -248,-796 0,-503 248,-796 249,-292 674,-292 425,0 673,292 248,293 248,796 0,506 -248,796 -248,291 -673,291 z m 1253,1979 v -575 q -238,112 -480,171 -242,60 -480,60 -625,0 -955,-422 -329,-422 -376,-1275 184,272 462,417 279,145 613,145 703,0 1111,-427 408,-426 408,-1160 0,-719 -425,-1154 -425,-434 -1131,-434 -810,0 -1238,620 -428,621 -428,1799 0,1106 525,1764 525,658 1409,658 238,0 480,-47 242,-47 505,-140 z"
       transform="scale(0.015625)" /><path
       id="DejaVuSans-35"
       d="M 691,4666 H 3169 V 4134 H 1269 V 2991 q 137,47 274,70 138,23 276,23 781,0 1237,-428 457,-428 457,-1159 Q 3513,744 3044,326 2575,-91 1722,-91 1428,-91 1123,-41 819,9 494,109 v 635 q 281,-153 581,-228 300,-75 634,-75 541,0 856,284 316,284 316,772 0,487 -316,771 -315,285 -856,285 -253,0 -505,-56 -251,-56 -513,-175 z"
       transform="scale(0.015625)" /><path
       id="DejaVuSans-37"
       d="M 525,4666 H 3525 V 4397 L 1831,0 H 1172 L 2766,4134 H 525 Z"
       transform="scale(0.015625)" /><path
       id="DejaVuSans-38-2"
       d="m 2034,2216 q -450,0 -708,-241 -257,-241 -257,-662 0,-422 257,-663 258,-241 708,-241 450,0 709,242 260,243 260,662 0,421 -258,662 -257,241 -711,241 z m -631,268 q -406,100 -633,378 -226,279 -226,679 0,559 398,884 399,325 1092,325 697,0 1094,-325 397,-325 397,-884 0,-400 -227,-679 -226,-278 -629,-378 456,-106 710,-416 255,-309 255,-755 Q 3634,634 3220,271 2806,-91 2034,-91 1263,-91 848,271 434,634 434,1313 q 0,446 256,755 257,310 713,416 z m -231,997 q 0,-362 226,-565 227,-203 636,-203 407,0 636,203 230,203 230,565 0,363 -230,566 -229,203 -636,203 -409,0 -636,-203 -226,-203 -226,-566 z"
       transform="scale(0.015625)" /><path
       id="DejaVuSans-39"
       d="m 703,97 v 575 q 238,-113 481,-172 244,-59 479,-59 625,0 954,420 330,420 377,1277 -181,-269 -460,-413 -278,-144 -615,-144 -700,0 -1108,423 -408,424 -408,1159 0,718 425,1152 425,435 1131,435 810,0 1236,-621 427,-620 427,-1801 Q 3622,1225 3098,567 2575,-91 1691,-91 1453,-91 1209,-44 966,3 703,97 Z m 1256,1978 q 425,0 673,290 249,291 249,798 0,503 -249,795 -248,292 -673,292 -425,0 -673,-292 -248,-292 -248,-795 0,-507 248,-798 248,-290 673,-290 z"
       transform="scale(0.015625)" /><path
       id="mee54a2a9c8"
       d="M 0,0 H -3.5"
       style="stroke:#000000;stroke-width:0.8" /><path
       id="DejaVuSans-2212-1"
       d="M 678,2272 H 4684 V 1741 H 678 Z"
       transform="scale(0.015625)" /><path
       id="DejaVuSans-31-2"
       d="M 794,531 H 1825 V 4091 L 703,3866 v 575 l 1116,225 h 631 V 531 H 3481 V 0 H 794 Z"
       transform="scale(0.015625)" /><path
       id="DejaVuSans-34-0"
       d="M 2419,4116 825,1625 h 1594 z m -166,550 h 794 V 1625 h 666 V 1100 H 3047 V 0 H 2419 V 1100 H 313 v 609 z"
       transform="scale(0.015625)" /><path
       id="DejaVuSans-32-9"
       d="M 1228,531 H 3431 V 0 H 469 v 531 q 359,372 979,998 621,627 780,809 303,340 423,576 121,236 121,464 0,372 -261,606 -261,235 -680,235 -297,0 -627,-103 -329,-103 -704,-313 v 638 q 381,153 712,231 332,78 607,78 725,0 1156,-363 431,-362 431,-968 0,-288 -108,-546 -107,-257 -392,-607 -78,-91 -497,-524 Q 1991,1309 1228,531 Z"
       transform="scale(0.015625)" /><clipPath
       id="pbe233d29c7"><rect
         x="57.599998"
         y="41.472"
         width="357.12"
         height="266.112"
         id="rect89726" /></clipPath><style
       type="text/css"
       id="style90928">*{stroke-linejoin: round; stroke-linecap: butt}</style><path
       id="m3c8ec51251"
       d="M 0,0 V 3.5"
       style="stroke:#000000;stroke-width:0.8" /><path
       id="DejaVuSans-30-2"
       d="m 2034,4250 q -487,0 -733,-480 -245,-479 -245,-1442 0,-959 245,-1439 246,-480 733,-480 491,0 736,480 246,480 246,1439 0,963 -246,1442 -245,480 -736,480 z m 0,500 q 785,0 1199,-621 414,-620 414,-1801 0,-1178 -414,-1799 -414,-620 -1199,-620 -784,0 -1198,620 -414,621 -414,1799 0,1181 414,1801 414,621 1198,621 z"
       transform="scale(0.015625)" /><path
       id="DejaVuSans-2e-3"
       d="m 684,794 h 660 V 0 H 684 Z"
       transform="scale(0.015625)" /><path
       id="DejaVuSans-33-0"
       d="m 2597,2516 q 453,-97 707,-404 255,-306 255,-756 0,-690 -475,-1069 -475,-378 -1350,-378 -293,0 -604,58 -311,58 -642,174 v 609 q 262,-153 574,-231 313,-78 654,-78 593,0 904,234 311,234 311,681 0,413 -289,645 -289,233 -804,233 h -544 v 519 h 569 q 465,0 712,186 247,186 247,536 0,359 -255,551 -254,193 -729,193 -260,0 -557,-57 -297,-56 -653,-174 v 562 q 360,100 674,150 314,50 592,50 719,0 1137,-327 419,-326 419,-882 0,-388 -222,-655 -222,-267 -631,-370 z"
       transform="scale(0.015625)" /><path
       id="DejaVuSans-36-5"
       d="m 2113,2584 q -425,0 -674,-291 -248,-290 -248,-796 0,-503 248,-796 249,-292 674,-292 425,0 673,292 248,293 248,796 0,506 -248,796 -248,291 -673,291 z m 1253,1979 v -575 q -238,112 -480,171 -242,60 -480,60 -625,0 -955,-422 -329,-422 -376,-1275 184,272 462,417 279,145 613,145 703,0 1111,-427 408,-426 408,-1160 0,-719 -425,-1154 -425,-434 -1131,-434 -810,0 -1238,620 -428,621 -428,1799 0,1106 525,1764 525,658 1409,658 238,0 480,-47 242,-47 505,-140 z"
       transform="scale(0.015625)" /><path
       id="DejaVuSans-35-2"
       d="M 691,4666 H 3169 V 4134 H 1269 V 2991 q 137,47 274,70 138,23 276,23 781,0 1237,-428 457,-428 457,-1159 Q 3513,744 3044,326 2575,-91 1722,-91 1428,-91 1123,-41 819,9 494,109 v 635 q 281,-153 581,-228 300,-75 634,-75 541,0 856,284 316,284 316,772 0,487 -316,771 -315,285 -856,285 -253,0 -505,-56 -251,-56 -513,-175 z"
       transform="scale(0.015625)" /><path
       id="DejaVuSans-37-6"
       d="M 525,4666 H 3525 V 4397 L 1831,0 H 1172 L 2766,4134 H 525 Z"
       transform="scale(0.015625)" /><path
       id="DejaVuSans-38-0"
       d="m 2034,2216 q -450,0 -708,-241 -257,-241 -257,-662 0,-422 257,-663 258,-241 708,-241 450,0 709,242 260,243 260,662 0,421 -258,662 -257,241 -711,241 z m -631,268 q -406,100 -633,378 -226,279 -226,679 0,559 398,884 399,325 1092,325 697,0 1094,-325 397,-325 397,-884 0,-400 -227,-679 -226,-278 -629,-378 456,-106 710,-416 255,-309 255,-755 Q 3634,634 3220,271 2806,-91 2034,-91 1263,-91 848,271 434,634 434,1313 q 0,446 256,755 257,310 713,416 z m -231,997 q 0,-362 226,-565 227,-203 636,-203 407,0 636,203 230,203 230,565 0,363 -230,566 -229,203 -636,203 -409,0 -636,-203 -226,-203 -226,-566 z"
       transform="scale(0.015625)" /><path
       id="DejaVuSans-39-4"
       d="m 703,97 v 575 q 238,-113 481,-172 244,-59 479,-59 625,0 954,420 330,420 377,1277 -181,-269 -460,-413 -278,-144 -615,-144 -700,0 -1108,423 -408,424 -408,1159 0,718 425,1152 425,435 1131,435 810,0 1236,-621 427,-620 427,-1801 Q 3622,1225 3098,567 2575,-91 1691,-91 1453,-91 1209,-44 966,3 703,97 Z m 1256,1978 q 425,0 673,290 249,291 249,798 0,503 -249,795 -248,292 -673,292 -425,0 -673,-292 -248,-292 -248,-795 0,-507 248,-798 248,-290 673,-290 z"
       transform="scale(0.015625)" /><path
       id="m37d93377cd"
       d="M 0,0 H -3.5"
       style="stroke:#000000;stroke-width:0.8" /><path
       id="DejaVuSans-2212-4"
       d="M 678,2272 H 4684 V 1741 H 678 Z"
       transform="scale(0.015625)" /><path
       id="DejaVuSans-31-74"
       d="M 794,531 H 1825 V 4091 L 703,3866 v 575 l 1116,225 h 631 V 531 H 3481 V 0 H 794 Z"
       transform="scale(0.015625)" /><path
       id="DejaVuSans-34-7"
       d="M 2419,4116 825,1625 h 1594 z m -166,550 h 794 V 1625 h 666 V 1100 H 3047 V 0 H 2419 V 1100 H 313 v 609 z"
       transform="scale(0.015625)" /><path
       id="DejaVuSans-32-6"
       d="M 1228,531 H 3431 V 0 H 469 v 531 q 359,372 979,998 621,627 780,809 303,340 423,576 121,236 121,464 0,372 -261,606 -261,235 -680,235 -297,0 -627,-103 -329,-103 -704,-313 v 638 q 381,153 712,231 332,78 607,78 725,0 1156,-363 431,-362 431,-968 0,-288 -108,-546 -107,-257 -392,-607 -78,-91 -497,-524 Q 1991,1309 1228,531 Z"
       transform="scale(0.015625)" /><clipPath
       id="p73b03a4159"><rect
         x="57.599998"
         y="41.472"
         width="357.12"
         height="266.112"
         id="rect91301" /></clipPath><marker
       style="overflow:visible"
       id="Arrow5-2"
       refX="0"
       refY="0"
       orient="auto-start-reverse"
       inkscape:stockid="Arrow5"
       markerWidth="5.166595"
       markerHeight="5.6665726"
       viewBox="0 0 5.166595 5.6665725"
       inkscape:isstock="true"
       inkscape:collect="always"
       preserveAspectRatio="xMidYMid"><path
         transform="scale(0.5)"
         style="fill:context-stroke;fill-rule:evenodd;stroke:context-stroke;stroke-width:1pt"
         d="m 6,0 c -3,1 -7,3 -9,5 0,0 0,-4 2,-5 -2,-1 -2,-5 -2,-5 2,2 6,4 9,5 z"
         id="path8893-2" /></marker><marker
       style="overflow:visible"
       id="Arrow5-3"
       refX="0"
       refY="0"
       orient="auto-start-reverse"
       inkscape:stockid="Arrow5"
       markerWidth="5.166595"
       markerHeight="5.6665726"
       viewBox="0 0 5.166595 5.6665725"
       inkscape:isstock="true"
       inkscape:collect="always"
       preserveAspectRatio="xMidYMid"><path
         transform="scale(0.5)"
         style="fill:context-stroke;fill-rule:evenodd;stroke:context-stroke;stroke-width:1pt"
         d="m 6,0 c -3,1 -7,3 -9,5 0,0 0,-4 2,-5 -2,-1 -2,-5 -2,-5 2,2 6,4 9,5 z"
         id="path8893-7" /></marker><marker
       style="overflow:visible"
       id="Arrow5-25"
       refX="0"
       refY="0"
       orient="auto-start-reverse"
       inkscape:stockid="Arrow5"
       markerWidth="5.166595"
       markerHeight="5.6665726"
       viewBox="0 0 5.166595 5.6665725"
       inkscape:isstock="true"
       inkscape:collect="always"
       preserveAspectRatio="xMidYMid"><path
         transform="scale(0.5)"
         style="fill:context-stroke;fill-rule:evenodd;stroke:context-stroke;stroke-width:1pt"
         d="m 6,0 c -3,1 -7,3 -9,5 0,0 0,-4 2,-5 -2,-1 -2,-5 -2,-5 2,2 6,4 9,5 z"
         id="path8893-6" /></marker></defs><g
     inkscape:label="Layer 1"
     inkscape:groupmode="layer"
     id="layer1"
     transform="translate(-44.11862,-7.3339032)"><text
       xml:space="preserve"
       style="font-style:normal;font-weight:normal;font-size:3.18314px;line-height:1.25;font-family:sans-serif;fill:#000000;fill-opacity:1;stroke:none;stroke-width:0.170525"
       x="146.24924"
       y="162.91035"
       id="text26453"><tspan
         sodipodi:role="line"
         id="tspan26451"
         style="font-size:3.18314px;stroke-width:0.170525"
         x="146.24924"
         y="162.91035">Rapid K<tspan
   style="font-size:2.06904px;baseline-shift:super;stroke-width:0.170525"
   id="tspan161318">+</tspan> ion channel </tspan><tspan
         sodipodi:role="line"
         style="font-size:3.18314px;stroke-width:0.170525"
         x="146.24924"
         y="166.88928"
         id="tspan26457">deactivation results in</tspan><tspan
         sodipodi:role="line"
         style="font-size:3.18314px;stroke-width:0.170525"
         x="146.24924"
         y="170.86821"
         id="tspan41973">less repolarization</tspan></text><path
       style="fill:#ff4700;fill-opacity:1;stroke:#000000;stroke-width:0.170525px;stroke-linecap:butt;stroke-linejoin:miter;stroke-opacity:1"
       d="m 68.441282,131.4419 c -1.604518,-1.89135 -3.132607,-1.84971 -5.064341,-1.20579 -0.752735,0.25091 0.08039,0.16077 -0.241159,0.48231 -0.498967,0.49897 0.0195,-0.76249 -0.482319,0.24116 -0.646324,1.29265 1.431674,3.34567 1.929273,4.34086 0.41855,0.83711 -0.756986,3.30922 -0.241158,4.34087 0.03595,0.0719 0.184317,-0.0568 0.241158,0 0.148162,0.14816 0.159321,0.56198 0.482319,0.72347 0.288649,0.14433 0.651349,0.0845 0.964636,0.24116 0.312906,0.15646 0.638844,0.31943 0.964636,0.48233 0.237646,0.11882 2.932665,0.2024 3.135069,0 0.0666,-0.0666 0.0097,-1.18647 0,-1.2058 -0.03595,-0.0719 -0.184317,0.0568 -0.241159,0 -0.113684,-0.11369 0.0719,-0.33852 0,-0.48232 -0.177561,-0.35512 -0.319967,-0.31997 -0.482319,-0.48232 -0.08038,-0.0804 -0.160772,-0.64309 -0.241158,-0.72347 -0.05684,-0.0568 -0.184318,0.0568 -0.241159,0 -0.207354,-0.20736 -0.241159,-1.39289 -0.241159,-1.92928 0,-0.32713 -0.09758,-0.91304 0,-1.20579 0.15377,-0.46132 1.561722,-2.29683 0.964636,-2.89391 -0.331442,-0.33144 -0.830813,-0.44224 -1.205796,-0.72348 z"
       id="path81445" /><path
       style="fill:#ff4700;fill-opacity:1;stroke:#000000;stroke-width:0.170525px;stroke-linecap:butt;stroke-linejoin:miter;stroke-opacity:1"
       d="m 76.967545,131.4419 c 1.604518,-1.89135 3.132607,-1.84971 5.064341,-1.20579 0.752735,0.25091 -0.08039,0.16077 0.241159,0.48231 0.498967,0.49897 -0.0195,-0.76249 0.482319,0.24116 0.646324,1.29265 -1.431674,3.34567 -1.929273,4.34086 -0.41855,0.83711 0.756986,3.30922 0.241158,4.34087 -0.03595,0.0719 -0.184317,-0.0568 -0.241158,0 -0.148162,0.14816 -0.159321,0.56198 -0.482319,0.72347 -0.288649,0.14433 -0.651349,0.0845 -0.964636,0.24116 -0.312906,0.15646 -0.638844,0.31943 -0.964636,0.48233 -0.237646,0.11882 -2.932665,0.2024 -3.135069,0 -0.0666,-0.0666 -0.0097,-1.18647 0,-1.2058 0.03595,-0.0719 0.184317,0.0568 0.241159,0 0.113684,-0.11369 -0.0719,-0.33852 0,-0.48232 0.177561,-0.35512 0.319967,-0.31997 0.482319,-0.48232 0.08038,-0.0804 0.160772,-0.64309 0.241159,-0.72347 0.05684,-0.0568 0.184317,0.0568 0.241158,0 0.207354,-0.20736 0.241159,-1.39289 0.241159,-1.92928 0,-0.32713 0.09758,-0.91304 0,-1.20579 -0.15377,-0.46132 -1.561722,-2.29683 -0.964636,-2.89391 0.331442,-0.33144 0.830813,-0.44224 1.205796,-0.72348 z"
       id="path82684" /><g
       id="line2d_17"
       transform="matrix(0.227367,0,0,0.227367,37.503167,123.43991)"><path
         style="color:#000000;fill:#000000;stroke-linecap:square;stroke-linejoin:round;-inkscape-stroke:none"
         d="m 69.703125,45.958984 a 0.750075,0.750075 0 0 0 -0.669922,0.140625 l -5.951172,4.789063 a 0.750075,0.750075 0 0 0 -0.271484,0.466797 l -5.951172,37.880859 a 0.750075,0.750075 0 0 0 -0.0078,0.05469 l -5.951171,72.429682 -0.06055,0.74805 1.49414,0.12305 0.06055,-0.74805 5.951172,-72.402342 5.902344,-37.566406 5.427734,-4.367188 5.488281,1.513672 5.824219,3.367188 5.878906,4.580078 5.898438,5.720703 5.912109,6.857422 5.925783,7.953125 5.93359,8.916016 5.94141,9.658203 5.94726,10.083979 5.95117,10.13477 a 0.750075,0.750075 0 0 0 0.006,0.008 l 5.95117,9.8457 a 0.750075,0.750075 0 0 0 0.01,0.0156 l 5.95312,9.31641 a 0.750075,0.750075 0 0 0 0.0117,0.0215 l 5.95313,8.67578 a 0.750075,0.750075 0 0 0 0.0156,0.0215 l 5.95313,8.00585 a 0.750075,0.750075 0 0 0 0.0176,0.0254 l 5.95312,7.36132 a 0.750075,0.750075 0 0 0 0.0195,0.0234 l 5.95117,6.77344 a 0.750075,0.750075 0 0 0 0.0215,0.0215 l 5.95117,6.25 a 0.750075,0.750075 0 0 0 0.0195,0.0195 l 5.95313,5.80079 a 0.750075,0.750075 0 0 0 0.0176,0.0156 l 5.95117,5.42578 a 0.750075,0.750075 0 0 0 0.0156,0.0156 l 5.95313,5.12695 a 0.750075,0.750075 0 0 0 0.0117,0.0117 l 5.95312,4.9043 a 0.750075,0.750075 0 0 0 0.008,0.008 l 5.95313,4.75 a 0.750075,0.750075 0 0 0 0.006,0.004 l 5.95117,4.66211 a 0.750075,0.750075 0 0 0 0.002,0.002 l 5.95117,4.62695 5.94922,4.64258 5.94727,4.70117 5.94726,4.79492 5.94336,4.91797 5.94727,5.03711 5.94922,5.11328 a 0.750075,0.750075 0 0 0 0.002,0.002 l 5.95117,5.09375 a 0.750075,0.750075 0 0 0 0.01,0.008 l 5.95117,4.9414 a 0.750075,0.750075 0 0 0 0.0176,0.0137 l 5.95117,4.66016 a 0.750075,0.750075 0 0 0 0.0254,0.0176 l 5.95117,4.28711 a 0.750075,0.750075 0 0 0 0.0293,0.0195 l 5.95117,3.87305 a 0.750075,0.750075 0 0 0 0.0332,0.0195 l 5.95117,3.46094 a 0.750075,0.750075 0 0 0 0.0332,0.0195 l 5.95117,3.08007 a 0.750075,0.750075 0 0 0 0.0312,0.0156 l 5.95313,2.73633 a 0.750075,0.750075 0 0 0 0.0293,0.0137 l 5.95118,2.43164 a 0.750075,0.750075 0 0 0 0.0273,0.0117 l 5.95312,2.16211 a 0.750075,0.750075 0 0 0 0.0254,0.01 l 5.95117,1.92579 a 0.750075,0.750075 0 0 0 0.0234,0.008 l 5.95118,1.71484 a 0.750075,0.750075 0 0 0 0.0215,0.006 l 5.95313,1.53125 a 0.750075,0.750075 0 0 0 0.0176,0.004 l 5.95313,1.36718 a 0.750075,0.750075 0 0 0 0.0176,0.004 l 5.95117,1.2207 a 0.750075,0.750075 0 0 0 0.0156,0.004 l 5.95118,1.08984 a 0.750075,0.750075 0 0 0 0.0137,0.002 l 5.95312,0.97461 a 0.750075,0.750075 0 0 0 0.0117,0.002 l 5.95313,0.87109 a 0.750075,0.750075 0 0 0 0.0117,0.002 l 5.95117,0.77929 a 0.750075,0.750075 0 0 0 0.01,0 l 5.95313,0.69532 a 0.750075,0.750075 0 0 0 0.008,0.002 l 5.95313,0.62109 a 0.750075,0.750075 0 0 0 0.008,0 l 5.95312,0.55274 a 0.750075,0.750075 0 0 0 0.006,0 l 5.95313,0.49218 a 0.750075,0.750075 0 0 0 0.006,0 l 5.95312,0.43555 a 0.750075,0.750075 0 0 0 0.006,0.002 l 5.95313,0.38477 a 0.750075,0.750075 0 0 0 0.004,0 l 5.95313,0.33984 a 0.750075,0.750075 0 0 0 0.006,0.002 l 5.95117,0.29687 a 0.750075,0.750075 0 0 0 0.004,0 l 5.95313,0.25977 0.75,0.0332 0.0645,-1.49805 -0.75,-0.0332 -5.94922,-0.25976 -5.94726,-0.29688 -5.94531,-0.33984 -5.94727,-0.38672 -5.94531,-0.43555 -5.94336,-0.49023 -5.94531,-0.55274 -5.94336,-0.61914 -5.94141,-0.69336 -5.94141,-0.77734 -5.93945,-0.86914 -5.93945,-0.97266 -5.9375,-1.08789 -5.93555,-1.2168 -5.93359,-1.36328 -5.93164,-1.52539 -5.92969,-1.71094 -5.92774,-1.91796 -5.92578,-2.15235 -5.92382,-2.42187 -5.92188,-2.72266 -5.91992,-3.06445 -5.91992,-3.44336 -5.92188,-3.85352 -5.92383,-4.26562 -5.93164,-4.64453 -5.93945,-4.93164 -5.94727,-5.0918 -5.95117,-5.11524 a 0.750075,0.750075 0 0 0 -0.004,-0.004 l -5.95313,-5.04102 a 0.750075,0.750075 0 0 0 -0.006,-0.006 l -5.95312,-4.92187 a 0.750075,0.750075 0 0 0 -0.006,-0.006 l -5.95313,-4.80078 a 0.750075,0.750075 0 0 0 -0.006,-0.004 l -5.95117,-4.70508 a 0.750075,0.750075 0 0 0 -0.004,-0.002 l -5.95312,-4.64453 a 0.750075,0.750075 0 0 0 0,-0.002 l -5.95117,-4.62696 -5.94727,-4.6582 -5.94531,-4.74609 -5.94141,-4.89454 -5.9375,-5.11718 -5.93554,-5.41016 -5.9336,-5.78125 -5.93164,-6.22851 -5.93164,-6.75 -5.93359,-7.3379 -5.9336,-7.98242 -5.9375,-8.65234 -5.93945,-9.30078 -5.94531,-9.83203 -5.94922,-10.13282 -5.95312,-10.089837 a 0.750075,0.750075 0 0 0 -0.006,-0.01172 l -5.95313,-9.675781 a 0.750075,0.750075 0 0 0 -0.0137,-0.02344 l -5.95313,-8.943359 a 0.750075,0.750075 0 0 0 -0.0215,-0.0332 l -5.953123,-7.988282 a 0.750075,0.750075 0 0 0 -0.0332,-0.04297 l -5.951172,-6.904297 a 0.750075,0.750075 0 0 0 -0.04687,-0.04883 l -5.951172,-5.771485 a 0.750075,0.750075 0 0 0 -0.0625,-0.05273 L 81.870682,51.17494 A 0.750075,0.750075 0 0 0 81.784742,51.1183 L 75.83357,47.674941 a 0.750075,0.750075 0 0 0 -0.175781,-0.07422 z"
         id="path89709" /></g><g
       id="line2d_17-5"
       transform="matrix(0.227367,0,0,0.227367,136.07172,123.19113)"><path
         d="m 51.648,194.6203 5.952,-36.97782 5.952,-72.887329 5.952,-34.289009 5.952,-4.263524 5.952,1.437557 5.952,3.068444 5.952,4.153733 5.952,5.190632 5.952,6.23534 5.952,7.254434 5.952,8.185521 5.952,8.953287 5.952,9.481674 5.952,9.71499 5.952,9.64691 5.952,9.33235 5.952,8.86176 5.952,8.32024 5.952,7.76635 5.952,7.23357 5.952,6.73937 5.952,6.29259 5.952,5.89724 5.952,5.55332 5.952,5.25625 5.952,4.99623 5.952,4.75902 5.952,4.52922 5.952,4.29509 5.952,4.05271 5.952,3.80633 5.952,3.5638 5.952,3.32916 5.952,3.09806 5.952,2.85935 5.952,2.60147 5.952,2.31953 5.952,2.01822 5.952,1.71001 5.952,1.41019 5.952,1.132 5.952,0.88412 5.952,0.67022 5.952,0.49006 5.952,0.34096 5.952,0.21907 5.952,0.1203 5.952,0.0406 5.952,-0.0233 5.952,-0.0746 5.952,-0.11578 5.952,-0.1488 5.952,-0.17532 5.952,-0.19672 5.952,-0.21403 5.952,-0.22811 5.952,-0.23967 5.952,-0.24923 5.952,-0.25723 5.952,-0.26402 5.952,-0.26991"
         clip-path="url(#p73b03a4159)"
         style="fill:none;stroke:#000000;stroke-width:1.5;stroke-linecap:square"
         id="path91284"
         transform="matrix(1,0,0,0.87155888,0,5.8379858)" /></g><path
       style="fill:#ff4700;fill-opacity:1;stroke:#000000;stroke-width:0.170525px;stroke-linecap:butt;stroke-linejoin:miter;stroke-opacity:1"
       d="m 88.904284,158.72594 c -1.604498,-1.89136 -3.132582,-1.84971 -5.064313,-1.2058 -0.752735,0.25092 0.08039,0.16078 -0.241159,0.48232 -0.498967,0.49897 0.0195,-0.76249 -0.482319,0.24116 -0.646324,1.29265 1.431674,3.34566 1.929275,4.34086 0.418547,0.83711 -0.756988,3.30921 -0.24116,4.34087 0.0359,0.0719 0.18432,-0.0568 0.24116,0 0.148157,0.14816 0.159317,0.56198 0.482317,0.72347 0.288647,0.14433 0.651347,0.0845 0.964624,0.24116 0.312907,0.15646 0.638847,0.31943 0.964634,0.48232 0.23764,0.11883 2.932655,0.2024 3.135052,0 0.0666,-0.0666 0.01,-1.18646 0,-1.20579 -0.036,-0.0719 -0.184317,0.0568 -0.241157,0 -0.11368,-0.11369 0.0719,-0.33852 0,-0.48232 -0.17756,-0.35512 -0.31997,-0.31997 -0.482317,-0.48232 -0.0804,-0.0804 -0.16077,-0.64309 -0.24116,-0.72348 -0.0568,-0.0568 -0.18432,0.0568 -0.241157,0 -0.20735,-0.20735 -0.24116,-1.39288 -0.24116,-1.92927 0,-0.32713 -0.0976,-0.91304 0,-1.20579 0.15377,-0.46132 1.561721,-2.29683 0.964634,-2.89391 -0.331437,-0.33145 -0.830804,-0.44224 -1.205794,-0.72348 z"
       id="path152953" /><path
       style="fill:#ff4700;fill-opacity:1;stroke:#000000;stroke-width:0.170525px;stroke-linecap:butt;stroke-linejoin:miter;stroke-opacity:1"
       d="m 94.020017,158.72594 c 1.60452,-1.89136 3.132601,-1.84971 5.064319,-1.2058 0.752737,0.25092 -0.0804,0.16078 0.24116,0.48232 0.498967,0.49897 -0.0195,-0.76249 0.482317,0.24116 0.646327,1.29265 -1.431661,3.34566 -1.929258,4.34086 -0.41855,0.83711 0.756984,3.30921 0.241157,4.34087 -0.036,0.0719 -0.18432,-0.0568 -0.241157,0 -0.14816,0.14816 -0.15932,0.56198 -0.48232,0.72347 -0.288647,0.14433 -0.651344,0.0845 -0.964634,0.24116 -0.312897,0.15646 -0.638837,0.31943 -0.964624,0.48232 -0.237647,0.11883 -2.932651,0.2024 -3.135061,0 -0.0666,-0.0666 -0.01,-1.18646 0,-1.20579 0.036,-0.0719 0.18431,0.0568 0.24116,0 0.113677,-0.11369 -0.0719,-0.33852 0,-0.48232 0.177557,-0.35512 0.319957,-0.31997 0.482307,-0.48232 0.0804,-0.0804 0.160777,-0.64309 0.241167,-0.72348 0.0568,-0.0568 0.18431,0.0568 0.24116,0 0.207347,-0.20735 0.241147,-1.39288 0.241147,-1.92927 0,-0.32713 0.0976,-0.91304 0,-1.20579 -0.153767,-0.46132 -1.561711,-2.29683 -0.964624,-2.89391 0.331437,-0.33145 0.830807,-0.44224 1.205784,-0.72348 z"
       id="path152955" /><path
       style="fill:#ff4700;fill-opacity:1;stroke:#000000;stroke-width:0.170525px;stroke-linecap:butt;stroke-linejoin:miter;stroke-opacity:1"
       d="m 123.0093,175.77846 c -1.60451,-1.89135 -3.1326,-1.8497 -5.06434,-1.20579 -0.75273,0.25092 0.0804,0.16077 -0.24116,0.48232 -0.49896,0.49897 0.0195,-0.76249 -0.48231,0.24116 -0.64633,1.29265 1.43167,3.34566 1.92927,4.34086 0.41855,0.8371 -0.75699,3.30921 -0.24116,4.34086 0.036,0.0719 0.18432,-0.0568 0.24116,0 0.14816,0.14817 0.15932,0.56199 0.48232,0.72348 0.28864,0.14433 0.65135,0.0845 0.96463,0.24116 0.31291,0.15646 0.63885,0.31942 0.96464,0.48232 0.23765,0.11882 2.93266,0.2024 3.13507,0 0.0666,-0.0666 0.01,-1.18647 0,-1.20579 -0.036,-0.0719 -0.18432,0.0568 -0.24116,0 -0.11368,-0.11369 0.0719,-0.33852 0,-0.48232 -0.17756,-0.35512 -0.31996,-0.31997 -0.48232,-0.48232 -0.0804,-0.0804 -0.16077,-0.64309 -0.24116,-0.72348 -0.0568,-0.0568 -0.18432,0.0568 -0.24116,0 -0.20735,-0.20735 -0.24116,-1.39288 -0.24116,-1.92927 0,-0.32713 -0.0976,-0.91305 0,-1.20579 0.15377,-0.46132 1.56173,-2.29683 0.96464,-2.89391 -0.33144,-0.33145 -0.83081,-0.44224 -1.2058,-0.72349 z"
       id="path152957" /><path
       style="fill:#ff4700;fill-opacity:1;stroke:#000000;stroke-width:0.170525px;stroke-linecap:butt;stroke-linejoin:miter;stroke-opacity:1"
       d="m 124.71455,175.77846 c 1.60452,-1.89135 3.13261,-1.8497 5.06434,-1.20579 0.75274,0.25092 -0.0804,0.16077 0.24116,0.48232 0.49896,0.49897 -0.0195,-0.76249 0.48232,0.24116 0.64633,1.29265 -1.43167,3.34566 -1.92928,4.34086 -0.41854,0.8371 0.75699,3.30921 0.24116,4.34086 -0.036,0.0719 -0.18431,-0.0568 -0.24116,0 -0.14816,0.14817 -0.15931,0.56199 -0.48231,0.72348 -0.28865,0.14433 -0.65135,0.0845 -0.96464,0.24116 -0.31291,0.15646 -0.63885,0.31942 -0.96464,0.48232 -0.23764,0.11882 -2.93265,0.2024 -3.13506,0 -0.0666,-0.0666 -0.01,-1.18647 0,-1.20579 0.036,-0.0719 0.18431,0.0568 0.24116,0 0.11368,-0.11369 -0.0719,-0.33852 0,-0.48232 0.17756,-0.35512 0.31996,-0.31997 0.48232,-0.48232 0.0804,-0.0804 0.16077,-0.64309 0.24116,-0.72348 0.0568,-0.0568 0.18431,0.0568 0.24116,0 0.20735,-0.20735 0.24115,-1.39288 0.24115,-1.92927 0,-0.32713 0.0976,-0.91305 0,-1.20579 -0.15376,-0.46132 -1.56172,-2.29683 -0.96463,-2.89391 0.33144,-0.33145 0.83081,-0.44224 1.20579,-0.72349 z"
       id="path152959" /><path
       style="fill:#3da558;fill-opacity:1;stroke:#000000;stroke-width:0.170525px;stroke-linecap:butt;stroke-linejoin:miter;stroke-opacity:1"
       d="m 168.52061,131.4419 c -1.60452,-1.89135 -3.13261,-1.84971 -5.06434,-1.20579 -0.75274,0.25091 0.0804,0.16077 -0.24116,0.48231 -0.49897,0.49897 0.0195,-0.76249 -0.48232,0.24116 -0.64632,1.29265 1.43167,3.34567 1.92928,4.34086 0.41854,0.83711 -0.75699,3.30922 -0.24117,4.34087 0.036,0.0719 0.18432,-0.0568 0.24117,0 0.14815,0.14816 0.15932,0.56198 0.48231,0.72347 0.28865,0.14433 0.65135,0.0845 0.96464,0.24116 0.3129,0.15646 0.63884,0.31943 0.96463,0.48233 0.23765,0.11882 2.93267,0.2024 3.13508,0 0.0666,-0.0666 0.01,-1.18647 0,-1.2058 -0.036,-0.0719 -0.18433,0.0568 -0.24116,0 -0.11369,-0.11369 0.0719,-0.33852 0,-0.48232 -0.17757,-0.35512 -0.31997,-0.31997 -0.48233,-0.48232 -0.0804,-0.0804 -0.16077,-0.64309 -0.24115,-0.72347 -0.0569,-0.0568 -0.18432,0.0568 -0.24116,0 -0.20736,-0.20736 -0.24116,-1.39289 -0.24116,-1.92928 0,-0.32713 -0.0976,-0.91304 0,-1.20579 0.15377,-0.46132 1.56172,-2.29683 0.96463,-2.89391 -0.33144,-0.33144 -0.83081,-0.44224 -1.20579,-0.72348 z"
       id="path152961" /><path
       style="fill:#3da558;fill-opacity:1;stroke:#000000;stroke-width:0.170525px;stroke-linecap:butt;stroke-linejoin:miter;stroke-opacity:1"
       d="m 177.04687,131.4419 c 1.60452,-1.89135 3.13261,-1.84971 5.06435,-1.20579 0.75273,0.25091 -0.0804,0.16077 0.24115,0.48231 0.49897,0.49897 -0.0195,-0.76249 0.48232,0.24116 0.64633,1.29265 -1.43167,3.34567 -1.92927,4.34086 -0.41855,0.83711 0.75698,3.30922 0.24116,4.34087 -0.036,0.0719 -0.18432,-0.0568 -0.24116,0 -0.14817,0.14816 -0.15932,0.56198 -0.48232,0.72347 -0.28865,0.14433 -0.65135,0.0845 -0.96464,0.24116 -0.3129,0.15646 -0.63884,0.31943 -0.96463,0.48233 -0.23765,0.11882 -2.93266,0.2024 -3.13507,0 -0.0666,-0.0666 -0.01,-1.18647 0,-1.2058 0.036,-0.0719 0.18431,0.0568 0.24116,0 0.11368,-0.11369 -0.0719,-0.33852 0,-0.48232 0.17756,-0.35512 0.31996,-0.31997 0.48231,-0.48232 0.0804,-0.0804 0.16078,-0.64309 0.24117,-0.72347 0.0568,-0.0568 0.18431,0.0568 0.24116,0 0.20735,-0.20736 0.24115,-1.39289 0.24115,-1.92928 0,-0.32713 0.0976,-0.91304 0,-1.20579 -0.15377,-0.46132 -1.56172,-2.29683 -0.96464,-2.89391 0.33145,-0.33144 0.83082,-0.44224 1.2058,-0.72348 z"
       id="path152963" /><path
       style="fill:#3da558;fill-opacity:1;stroke:#000000;stroke-width:0.170525px;stroke-linecap:butt;stroke-linejoin:miter;stroke-opacity:1"
       d="m 188.51263,153.49242 c -1.60452,-1.89135 -3.1326,-1.8497 -5.06434,-1.20579 -0.75274,0.25091 0.0804,0.16077 -0.24116,0.48231 -0.49896,0.49897 0.0195,-0.76248 -0.48232,0.24117 -0.64632,1.29265 1.43167,3.34566 1.92928,4.34086 0.41855,0.8371 -0.75699,3.30921 -0.24116,4.34086 0.036,0.0719 0.18431,-0.0568 0.24116,0 0.14816,0.14817 0.15932,0.56198 0.48231,0.72348 0.28865,0.14433 0.65135,0.0845 0.96464,0.24116 0.31291,0.15645 0.63885,0.31942 0.96464,0.48232 0.23764,0.11882 2.93266,0.2024 3.13507,0 0.0666,-0.0666 0.01,-1.18647 0,-1.2058 -0.036,-0.0719 -0.18432,0.0568 -0.24116,0 -0.11369,-0.11368 0.0719,-0.33852 0,-0.48231 -0.17756,-0.35513 -0.31997,-0.31997 -0.48232,-0.48232 -0.0804,-0.0804 -0.16078,-0.64309 -0.24116,-0.72348 -0.0568,-0.0568 -0.18432,0.0568 -0.24116,0 -0.20736,-0.20736 -0.24116,-1.39289 -0.24116,-1.92927 0,-0.32714 -0.0976,-0.91305 0,-1.2058 0.15377,-0.46131 1.56173,-2.29682 0.96464,-2.89391 -0.33145,-0.33144 -0.83082,-0.44224 -1.2058,-0.72348 z"
       id="path152965" /><path
       style="fill:#3da558;fill-opacity:1;stroke:#000000;stroke-width:0.170525px;stroke-linecap:butt;stroke-linejoin:miter;stroke-opacity:1"
       d="m 193.62839,153.49242 c 1.60451,-1.89135 3.1326,-1.8497 5.06434,-1.20579 0.75273,0.25091 -0.0804,0.16077 0.24116,0.48231 0.49896,0.49897 -0.0195,-0.76248 0.48231,0.24117 0.64633,1.29265 -1.43167,3.34566 -1.92927,4.34086 -0.41855,0.8371 0.75699,3.30921 0.24116,4.34086 -0.036,0.0719 -0.18432,-0.0568 -0.24116,0 -0.14816,0.14817 -0.15932,0.56198 -0.48232,0.72348 -0.28865,0.14433 -0.65135,0.0845 -0.96463,0.24116 -0.31291,0.15645 -0.63885,0.31942 -0.96464,0.48232 -0.23764,0.11882 -2.93266,0.2024 -3.13507,0 -0.0666,-0.0666 -0.01,-1.18647 0,-1.2058 0.036,-0.0719 0.18432,0.0568 0.24116,0 0.11369,-0.11368 -0.0719,-0.33852 0,-0.48231 0.17757,-0.35513 0.31997,-0.31997 0.48232,-0.48232 0.0804,-0.0804 0.16077,-0.64309 0.24116,-0.72348 0.0568,-0.0568 0.18432,0.0568 0.24116,0 0.20735,-0.20736 0.24116,-1.39289 0.24116,-1.92927 0,-0.32714 0.0976,-0.91305 0,-1.2058 -0.15377,-0.46131 -1.56172,-2.29682 -0.96464,-2.89391 0.33144,-0.33144 0.83082,-0.44224 1.2058,-0.72348 z"
       id="path152967" /><path
       style="fill:#3da558;fill-opacity:1;stroke:#000000;stroke-width:0.170525px;stroke-linecap:butt;stroke-linejoin:miter;stroke-opacity:1"
       d="m 219.00075,160.51986 c -1.60452,-1.89135 -3.13261,-1.8497 -5.06434,-1.20579 -0.75274,0.25091 0.0804,0.16077 -0.24116,0.48232 -0.49897,0.49897 0.0195,-0.76249 -0.48232,0.24116 -0.64632,1.29265 1.43167,3.34566 1.92927,4.34086 0.41855,0.8371 -0.75699,3.30921 -0.24116,4.34086 0.036,0.0719 0.18432,-0.0568 0.24116,0 0.14816,0.14817 0.15933,0.56199 0.48232,0.72348 0.28865,0.14433 0.65135,0.0845 0.96464,0.24116 0.3129,0.15645 0.63884,0.31942 0.96463,0.48232 0.23765,0.11882 2.93267,0.2024 3.13508,0 0.0666,-0.0666 0.01,-1.18647 0,-1.2058 -0.036,-0.0719 -0.18433,0.0569 -0.24117,0 -0.11368,-0.11368 0.0719,-0.33852 0,-0.48231 -0.17756,-0.35512 -0.31996,-0.31997 -0.48232,-0.48232 -0.0804,-0.0804 -0.16077,-0.64309 -0.24115,-0.72348 -0.0568,-0.0568 -0.18432,0.0568 -0.24116,0 -0.20736,-0.20736 -0.24116,-1.39288 -0.24116,-1.92927 0,-0.32713 -0.0976,-0.91305 0,-1.20579 0.15377,-0.46132 1.56172,-2.29683 0.96463,-2.89391 -0.33144,-0.33145 -0.83081,-0.44224 -1.20579,-0.72349 z"
       id="path152969" /><path
       style="fill:#3da558;fill-opacity:1;stroke:#000000;stroke-width:0.170525px;stroke-linecap:butt;stroke-linejoin:miter;stroke-opacity:1"
       d="m 220.706,160.51986 c 1.60451,-1.89135 3.1326,-1.8497 5.06434,-1.20579 0.75273,0.25091 -0.0804,0.16077 0.24116,0.48232 0.49896,0.49897 -0.0195,-0.76249 0.48231,0.24116 0.64633,1.29265 -1.43167,3.34566 -1.92927,4.34086 -0.41855,0.8371 0.75699,3.30921 0.24116,4.34086 -0.036,0.0719 -0.18432,-0.0568 -0.24116,0 -0.14816,0.14817 -0.15932,0.56199 -0.48232,0.72348 -0.28865,0.14433 -0.65135,0.0845 -0.96463,0.24116 -0.31291,0.15645 -0.63885,0.31942 -0.96464,0.48232 -0.23764,0.11882 -2.93266,0.2024 -3.13507,0 -0.0666,-0.0666 -0.01,-1.18647 0,-1.2058 0.036,-0.0719 0.18432,0.0569 0.24116,0 0.11369,-0.11368 -0.0719,-0.33852 0,-0.48231 0.17757,-0.35512 0.31997,-0.31997 0.48232,-0.48232 0.0804,-0.0804 0.16077,-0.64309 0.24116,-0.72348 0.0568,-0.0568 0.18432,0.0568 0.24116,0 0.20735,-0.20736 0.24116,-1.39288 0.24116,-1.92927 0,-0.32713 0.0976,-0.91305 0,-1.20579 -0.15377,-0.46132 -1.56172,-2.29683 -0.96464,-2.89391 0.33144,-0.33145 0.83082,-0.44224 1.2058,-0.72349 z"
       id="path152971" /><text
       xml:space="preserve"
       style="font-style:normal;font-weight:normal;font-size:6.82099px;line-height:1.25;font-family:sans-serif;fill:#000000;fill-opacity:1;stroke:none;stroke-width:0.170525"
       x="72.833542"
       y="148.46014"
       id="text155572"><tspan
         sodipodi:role="line"
         id="tspan155570"
         style="stroke-width:0.170525"
         x="72.833542"
         y="148.46014">K<tspan
   style="font-size:4.43364px;baseline-shift:super;stroke-width:0.170525"
   id="tspan157254">+</tspan></tspan></text><path
       style="fill:#fdff00;fill-opacity:1;stroke:#fdff00;stroke-width:1.28901;stroke-linecap:butt;stroke-linejoin:miter;stroke-miterlimit:4;stroke-dasharray:none;stroke-opacity:1;marker-end:url(#Arrow5)"
       d="M 72.704413,142.52603 V 128.88401"
       id="path164084" /><path
       style="fill:#fdff00;fill-opacity:1;stroke:#fdff00;stroke-width:0.644505;stroke-linecap:butt;stroke-linejoin:miter;stroke-miterlimit:4;stroke-dasharray:none;stroke-opacity:1;marker-end:url(#Arrow5)"
       d="M 91.462152,170.6627 V 157.02068"
       id="path166422" /><text
       xml:space="preserve"
       style="font-style:normal;font-weight:normal;font-size:6.82099px;line-height:1.25;font-family:sans-serif;fill:#000000;fill-opacity:1;stroke:none;stroke-width:0.170525"
       x="174.10655"
       y="147.437"
       id="text168731"><tspan
         sodipodi:role="line"
         id="tspan168729"
         style="stroke-width:0.170525"
         x="174.10655"
         y="147.437">K<tspan
   style="font-size:4.43364px;baseline-shift:super;stroke-width:0.170525"
   id="tspan168727">+</tspan></tspan></text><path
       style="fill:#fdff00;fill-opacity:1;stroke:#fdff00;stroke-width:1.28901;stroke-linecap:butt;stroke-linejoin:miter;stroke-miterlimit:4;stroke-dasharray:none;stroke-opacity:1;marker-end:url(#Arrow5)"
       d="M 172.78374,143.37866 V 129.73664"
       id="path168733" /><path
       style="fill:#fdff00;fill-opacity:1;stroke:#fdff00;stroke-width:0.644505;stroke-linecap:butt;stroke-linejoin:miter;stroke-miterlimit:4;stroke-dasharray:none;stroke-opacity:1;marker-end:url(#Arrow5)"
       d="M 191.0705,165.42919 V 151.78717"
       id="path168735" /><path
       style="fill:#27009f;fill-opacity:1;stroke:#27009f;stroke-width:1.28901;stroke-linecap:butt;stroke-linejoin:round;stroke-miterlimit:4;stroke-dasharray:none;stroke-opacity:1;marker-end:url(#Arrow5-2)"
       d="m 61.17746,69.612179 -0.0063,11.854269"
       id="path12714-4" /><path
       style="fill:#000000;fill-opacity:1;stroke:#fdff00;stroke-width:1.28901;stroke-linecap:butt;stroke-linejoin:round;stroke-miterlimit:4;stroke-dasharray:none;stroke-opacity:1;marker-end:url(#Arrow5-2)"
       d="m 71.408975,86.118638 -0.0063,-13.029652"
       id="path1490" /><path
       style="fill:#27009f;fill-opacity:1;stroke:#27009f;stroke-width:1.28901;stroke-linecap:butt;stroke-linejoin:round;stroke-miterlimit:4;stroke-dasharray:none;stroke-opacity:1;marker-end:url(#Arrow5-2)"
       d="m 61.17746,115.99372 -0.0063,-11.85427"
       id="path13054" /><path
       style="fill:#000000;fill-opacity:1;stroke:#fdff00;stroke-width:1.28901;stroke-linecap:butt;stroke-linejoin:round;stroke-miterlimit:4;stroke-dasharray:none;stroke-opacity:1;marker-end:url(#Arrow5-2)"
       d="m 71.408975,99.487255 -0.0063,13.029655"
       id="path13056" /><path
       style="fill:#000000;fill-opacity:1;stroke:#27009f;stroke-width:1.69016;stroke-linecap:butt;stroke-linejoin:round;stroke-miterlimit:4;stroke-dasharray:none;stroke-opacity:1;marker-end:url(#Arrow5-2)"
       d="m 171.09347,86.874817 20.38053,-0.0064"
       id="path2032" /><path
       style="fill:#27009f;fill-opacity:1;stroke:#27009f;stroke-width:1.28901;stroke-linecap:butt;stroke-linejoin:round;stroke-miterlimit:4;stroke-dasharray:none;stroke-opacity:1;marker-end:url(#Arrow5-2)"
       d="m 157.3753,69.612179 -0.006,11.854269"
       id="path13138" /><path
       style="fill:#27009f;fill-opacity:1;stroke:#27009f;stroke-width:1.28901;stroke-linecap:butt;stroke-linejoin:round;stroke-miterlimit:4;stroke-dasharray:none;stroke-opacity:1;marker-end:url(#Arrow5-2)"
       d="m 157.3753,115.99372 -0.006,-11.85427"
       id="path13142" /><path
       style="fill:#000000;fill-opacity:1;stroke:#fdff00;stroke-width:1.61538;stroke-linecap:butt;stroke-linejoin:round;stroke-miterlimit:4;stroke-dasharray:none;stroke-opacity:1;marker-end:url(#Arrow5-2)"
       d="m 194.88451,97.099887 -20.46303,-0.0064"
       id="path2034" /><ellipse
       style="fill:#343434;fill-opacity:1;stroke:none;stroke-width:0.540614;stroke-linecap:butt;stroke-linejoin:round"
       id="ellipse6513"
       cx="-149.6524"
       cy="92.688332"
       rx="2.1045177"
       ry="13.61064"
       transform="scale(-1,1)" /><path
       style="fill:#000000;fill-opacity:1;stroke:#fdff00;stroke-width:1.28901;stroke-linecap:butt;stroke-linejoin:round;stroke-miterlimit:4;stroke-dasharray:none;stroke-opacity:1;marker-end:url(#Arrow5-2)"
       d="m 167.60682,99.487255 -0.006,13.029655"
       id="path13144" /><g
       id="g6509"
       style="stroke-width:1;stroke-linecap:butt;stroke-linejoin:round;stroke-miterlimit:4;stroke-dasharray:none"
       transform="matrix(0.64450488,0,0,0.64450488,27.066093,3.993094)"><path
         id="rect965"
         style="fill:#818181;fill-opacity:0.503497;stroke:none;stroke-width:1;stroke-linecap:butt;stroke-linejoin:round;stroke-miterlimit:4;stroke-dasharray:none"
         d="m 80.116476,116.45337 a 3.2653245,21.117976 0 0 1 3.265325,21.11797 3.2653245,21.117976 0 0 1 -3.067301,21.07673 v 0.10194 H 41.130604 v -0.10251 a 3.2653245,21.117977 0 0 0 3.0673,-21.07613 3.2653245,21.117977 0 0 0 -3.028079,-21.05729 h 38.70207 a 3.2653245,21.117976 0 0 1 0.244581,-0.0607 z" /><ellipse
         style="fill:#343434;fill-opacity:1;stroke:none;stroke-width:1;stroke-linecap:butt;stroke-linejoin:round;stroke-miterlimit:4;stroke-dasharray:none"
         id="ellipse1071-3"
         cx="-40.943855"
         cy="137.61763"
         rx="3.2653246"
         ry="21.117977"
         transform="scale(-1,1)" /></g><path
       id="path13734"
       style="color:#000000;fill:#3da558;fill-opacity:1;stroke-width:0.135065;stroke-linecap:square;stroke-linejoin:round;-inkscape-stroke:none"
       d="m 181.77471,48.065877 -0.0899,-0.239134 -0.11718,0.222148 -0.16995,0.252791 -0.21837,0.257786 -0.2829,0.268444 -0.37903,0.292424 -0.52277,0.334057 -2.51374,1.281937 a 0.06018152,0.1705423 0 0 0 -2.3e-4,6.44e-4 l -1.01875,0.529561 a 0.06018152,0.1705423 0 0 0 -0.001,6.44e-4 l -0.82777,0.474607 a 0.06018152,0.1705423 0 0 0 -0.001,0.001 l -0.73233,0.466946 a 0.06018152,0.1705423 0 0 0 -0.001,9.67e-4 l -0.66851,0.475273 a 0.06018152,0.1705423 0 0 0 -0.002,0.0014 l -0.62091,0.491259 a 0.06018152,0.1705423 0 0 0 -0.002,0.0014 l -0.58906,0.51757 a 0.06018152,0.1705423 0 0 0 -0.002,0.002 l -0.55709,0.541551 a 0.06018152,0.1705423 0 0 0 -0.002,0.002 l -0.52536,0.562533 a 0.06018152,0.1705423 0 0 0 -0.002,0.002 l -0.5095,0.598504 a 0.06018152,0.1705423 0 0 0 -0.002,0.0023 l -0.49351,0.633142 a 0.06018152,0.1705423 0 0 0 -0.002,0.0026 l -0.47753,0.667779 a 0.06018152,0.1705423 0 0 0 -0.002,0.0026 l -0.42969,0.652459 a 0.06018152,0.1705423 0 0 0 -0.002,0.003 l -0.27067,0.448629 a 0.06018152,0.1705423 0 0 0 -0.003,0.0057 l -0.15914,0.306079 a 0.06018152,0.1705423 0 0 0 -0.005,0.01099 l -0.0954,0.230143 a 0.06018152,0.1705423 0 0 0 -0.007,0.01965 l -0.0456,0.151873 -3.17179,-6.44e-4 h -0.0602 v 0.341051 h 0.0602 l 3.19952,6.44e-4 a 0.06018152,0.1705423 0 0 0 0.0458,-0.05995 l 0.0605,-0.201832 0.0893,-0.214822 0.15479,-0.29742 0.26785,-0.443632 0.42793,-0.649794 0.47576,-0.665781 0.49175,-0.630811 0.50761,-0.596505 0.5236,-0.560868 0.55533,-0.539886 0.5873,-0.516239 0.61938,-0.49026 0.66687,-0.474273 0.73104,-0.46628 0.82647,-0.473607 1.01816,-0.529894 2.51503,-1.282936 a 0.06018152,0.1705423 0 0 0 0.002,-0.0014 l 0.52537,-0.335722 a 0.06018152,0.1705423 0 0 0 0.002,-0.002 l 0.38209,-0.294756 a 0.06018152,0.1705423 0 0 0 0.003,-0.0026 l 0.28655,-0.271775 a 0.06018152,0.1705423 0 0 0 0.004,-0.0043 l 0.22284,-0.263114 a 0.06018152,0.1705423 0 0 0 0.005,-0.0067 l 0.17512,-0.260117 a 0.06018152,0.1705423 0 0 0 0.005,-0.0093 z" /><path
       id="path13738"
       style="color:#000000;fill:#000000;stroke-width:0.227367;stroke-linecap:square;stroke-linejoin:round;-inkscape-stroke:none"
       d="m 182.07646,47.807425 -0.2498,-0.234472 -0.24913,0.215155 -0.0576,0.03863 0.25479,0.239134 a 0.1705423,0.1705423 0 0 0 0.017,-0.01232 z" /><path
       id="path13736"
       style="color:#000000;fill:#27009f;fill-opacity:1;stroke-width:0.250239;stroke-linecap:square;stroke-linejoin:round;-inkscape-stroke:none"
       d="m 183.64915,8.3833971 a 0.1705423,0.20657911 0 0 0 -0.0186,-0.010054 h -3.4e-4 a 0.1705423,0.20657911 0 0 0 -0.17652,0.1625841 l -0.0447,0.2537592 a 0.1705423,0.20657911 0 0 0 -0.004,0.036715 l -0.045,1.7117726 a 0.1705423,0.20657911 0 0 0 0,0.0048 l -0.0906,11.312707 a 0.1705423,0.20657911 0 0 0 0,4.02e-4 l -0.0899,13.513443 -0.045,3.342052 -0.0903,3.333578 -0.0896,1.595583 -0.0893,0.94081 -0.0883,0.62855 -0.13189,0.645496 -0.1299,0.445391 -0.17118,0.430868 -0.2125,0.390525 -0.25512,0.348568 -0.0499,0.05245 0.2498,0.284018 0.031,-0.03227 a 0.1705423,0.20657911 0 0 0 0.016,-0.01937 l 0.27077,-0.36995 a 0.1705423,0.20657911 0 0 0 0.0146,-0.02339 l 0.22548,-0.413924 a 0.1705423,0.20657911 0 0 0 0.0113,-0.02421 l 0.18018,-0.45346 a 0.1705423,0.20657911 0 0 0 0.007,-0.02098 l 0.13521,-0.465967 a 0.1705423,0.20657911 0 0 0 0.005,-0.01936 l 0.13556,-0.662035 a 0.1705423,0.20657911 0 0 0 0.003,-0.01534 l 0.0899,-0.641461 a 0.1705423,0.20657911 0 0 0 0.001,-0.01126 l 0.0903,-0.951299 a 0.1705423,0.20657911 0 0 0 3.3e-4,-0.0097 l 0.0906,-1.604057 a 0.1705423,0.20657911 0 0 0 0,-0.0069 l 0.0903,-3.339227 a 0.1705423,0.20657911 0 0 0 3.3e-4,-0.0031 l 0.045,-3.344472 a 0.1705423,0.20657911 0 0 0 0,-4.04e-4 0.1705423,0.20657911 0 0 0 0,-4.03e-4 0.1705423,0.20657911 0 0 0 0,-4.03e-4 0.1705423,0.20657911 0 0 0 0,-4.04e-4 l 0.0902,-13.514248 0.0563,-7.091975 0.0856,3.09757 z" /><path
       id="path13743"
       style="color:#000000;fill:#3da558;fill-opacity:1;stroke-width:0.250707;stroke-linecap:square;stroke-linejoin:round;-inkscape-stroke:none"
       d="m 188.78323,50.036873 -0.20317,0.343799 0.29342,0.158739 a 0.1705423,0.20735304 0 0 0 0.019,0.0094 l 0.40599,0.152261 a 0.1705423,0.20735304 0 0 0 0.0177,0.0052 l 0.45129,0.106496 a 0.1705423,0.20735304 0 0 0 0.016,0.0028 l 0.54121,0.06358 a 0.1705423,0.20735304 0 0 0 0.0137,0.0012 l 0.67677,0.01216 a 0.1705423,0.20735304 0 0 0 0.0113,0 l 0.85695,-0.05223 a 0.1705423,0.20735304 0 0 0 0.008,-0.0012 l 1.12807,-0.134443 a 0.1705423,0.20735304 0 0 0 0.005,-4.04e-4 l 1.66928,-0.265645 a 0.1705423,0.20735304 0 0 0 0.004,-4.05e-4 l 2.30076,-0.430458 a 0.1705423,0.20735304 0 0 0 0.004,-4.04e-4 l 2.03032,-0.436936 a 0.1705423,0.20735304 0 0 0 0.005,-0.0012 l 1.48843,-0.37741 a 0.1705423,0.20735304 0 0 0 0.007,-0.0017 l 1.12772,-0.345013 a 0.1705423,0.20735304 0 0 0 0.009,-0.0032 l 0.85729,-0.321527 a 0.1705423,0.20735304 0 0 0 0.0106,-0.0049 l 0.67677,-0.316668 a 0.1705423,0.20735304 0 0 0 0.0133,-0.0069 l 0.54122,-0.319097 a 0.1705423,0.20735304 0 0 0 0.015,-0.01009 l 0.40599,-0.304115 a 0.1705423,0.20735304 0 0 0 0.015,-0.01296 l 0.31573,-0.299256 a 0.1705423,0.20735304 0 0 0 0.0157,-0.01619 l 0.27045,-0.326791 a 0.1705423,0.20735304 0 0 0 0.0146,-0.01984 l 0.22548,-0.353112 a 0.1705423,0.20735304 0 0 0 0.012,-0.02106 l 0.18052,-0.369715 a 0.1705423,0.20735304 0 0 0 0.01,-0.02268 l 0.18052,-0.502943 a 0.1705423,0.20735304 0 0 0 0.007,-0.02187 l 0.13522,-0.531695 a 0.1705423,0.20735304 0 0 0 0.004,-0.01904 l 0.13556,-0.788833 a 0.1705423,0.20735304 0 0 0 0.002,-0.01376 l 0.0906,-0.805033 a 0.1705423,0.20735304 0 0 0 3.2e-4,-0.01058 l 0.0903,-1.278415 a 0.1705423,0.20735304 0 0 0 3.3e-4,-0.0081 l 0.0903,-2.412263 a 0.1705423,0.20735304 0 0 0 0,-4.05e-4 0.1705423,0.20735304 0 0 0 0,-4.05e-4 0.1705423,0.20735304 0 0 0 0,-4.05e-4 0.1705423,0.20735304 0 0 0 0,-4.05e-4 0.1705423,0.20735304 0 0 0 0,-4.05e-4 0.1705423,0.20735304 0 0 0 0,-4.04e-4 0.1705423,0.20735304 0 0 0 0,-4.05e-4 0.1705423,0.20735304 0 0 0 0,-4.05e-4 0.1705423,0.20735304 0 0 0 0,-4.05e-4 0.1705423,0.20735304 0 0 0 0,-4.05e-4 0.1705423,0.20735304 0 0 0 0,-4.06e-4 l 0.0453,-2.220317 a 0.1705423,0.20735304 0 0 0 0,-4.06e-4 0.1705423,0.20735304 0 0 0 0,-4.05e-4 0.1705423,0.20735304 0 0 0 0,-4.05e-4 0.1705423,0.20735304 0 0 0 0,-4.05e-4 0.1705423,0.20735304 0 0 0 0,-4.05e-4 l 0.0453,-3.708494 a 0.1705423,0.20735304 0 0 0 0,-4.05e-4 0.1705423,0.20735304 0 0 0 0,-4.05e-4 l 0.14388,-19.50665 0.32706,12.070223 a 0.1705423,0.20735304 0 0 0 3.3e-4,0.0032 l 0.18019,4.507858 a 0.1705423,0.20735304 0 0 0 0,0.0032 l 0.18084,3.39871 a 0.1705423,0.20735304 0 0 0 0,0.0045 l 0.18019,2.568167 a 0.1705423,0.20735304 0 0 0 6.4e-4,0.0064 l 0.18019,1.888263 a 0.1705423,0.20735304 0 0 0 6.4e-4,0.0094 l 0.18085,1.361023 a 0.1705423,0.20735304 0 0 0 0.002,0.01131 l 0.22548,1.245208 a 0.1705423,0.20735304 0 0 0 0.003,0.01058 l 0.31574,1.383297 a 0.1705423,0.20735304 0 0 0 6.5e-4,0.0045 l 0.99251,3.992767 a 0.1705423,0.20735304 0 0 0 0.003,0.01336 l 0.27077,0.86618 a 0.1705423,0.20735304 0 0 0 0.005,0.01498 l 0.27044,0.694888 a 0.1705423,0.20735304 0 0 0 0.008,0.01863 l 0.27111,0.546272 a 0.1705423,0.20735304 0 0 0 0.0106,0.01944 l 0.27077,0.429242 a 0.1705423,0.20735304 0 0 0 0.013,0.01823 l 0.27044,0.339749 a 0.1705423,0.20735304 0 0 0 0.016,0.01741 l 0.31574,0.30776 a 0.1705423,0.20735304 0 0 0 0.0177,0.01498 l 0.31573,0.234868 a 0.1705423,0.20735304 0 0 0 0.0186,0.01179 l 0.3607,0.198829 a 0.1705423,0.20735304 0 0 0 0.019,0.0085 l 0.40566,0.15631 a 0.1705423,0.20735304 0 0 0 0.0183,0.0052 l 0.45096,0.109742 a 0.1705423,0.20735304 0 0 0 0.016,0.0024 l 0.54122,0.06804 a 0.1705423,0.20735304 0 0 0 0.014,0.0012 l 0.67644,0.01741 a 0.1705423,0.20735304 0 0 0 0.011,0 l 0.85729,-0.04657 a 0.1705423,0.20735304 0 0 0 0.008,-0.0012 l 1.1274,-0.126748 a 0.1705423,0.20735304 0 0 0 0.006,-4.05e-4 l 1.66896,-0.255926 a 0.1705423,0.20735304 0 0 0 0.004,-7.84e-4 l 1.84947,-0.330436 0.16886,-0.02997 -0.0496,-0.410614 -0.16886,0.03037 -1.84779,0.330435 -1.6643,0.254711 -1.12106,0.126344 -0.8473,0.04617 -0.66412,-0.01741 -0.52623,-0.06601 -0.43397,-0.10528 -0.38768,-0.14821 -0.34205,-0.188704 -0.29742,-0.220697 -0.29875,-0.291561 -0.25646,-0.321121 -0.25878,-0.411021 -0.26145,-0.52805 -0.26445,-0.678283 -0.26577,-0.851197 -0.98985,-3.983858 -0.31441,-1.375601 -0.22348,-1.233061 -0.17885,-1.350899 -0.17985,-1.880569 -0.17985,-2.563308 -0.18052,-3.395067 -0.18019,-4.505022 -0.40599,-14.985024 a 0.1705423,0.20735304 0 0 0 0,-4.06e-4 0.1705423,0.20735304 0 0 0 0,-4.04e-4 0.1705423,0.20735304 0 0 0 0,-4.05e-4 0.1705423,0.20735304 0 0 0 0,-4.06e-4 l -0.0906,-2.7584914 a 0.1705423,0.20735304 0 0 0 0,-0.0073 l -0.0453,-0.7208041 a 0.1705423,0.20735304 0 0 0 -0.30142,-0.1162227 l -0.0453,0.066409 a 0.1705423,0.20735304 0 0 0 -0.0386,0.1239129 l -0.0453,1.3857255 a 0.1705423,0.20735304 0 0 0 0,0.00693 l -0.18018,24.4542778 -0.0453,3.70647 -0.045,2.21708 -0.0903,2.405784 -0.0896,1.269506 -0.0889,0.792479 -0.13222,0.771826 -0.13023,0.511851 -0.17219,0.480266 -0.16952,0.347444 -0.21249,0.332056 -0.25579,0.308569 -0.30008,0.284271 -0.39068,0.292372 -0.52723,0.310998 -0.66445,0.310998 -0.8473,0.318289 -1.11973,0.342583 -1.48278,0.37579 -2.02565,0.435721 -2.29676,0.429244 -1.66429,0.264834 -1.12074,0.133632 -0.84796,0.05183 -0.66378,-0.01216 -0.52657,-0.06156 -0.43397,-0.102861 -0.38734,-0.14497 z" /><path
       id="path13748"
       style="color:#000000;fill:#fdff00;fill-opacity:1;stroke-width:0.245442;stroke-linecap:square;stroke-linejoin:round;-inkscape-stroke:none"
       d="m 183.64915,9.4399256 0.10258,9.1218904 0.28377,9.860087 a 0.1705423,0.19873528 0 0 0 6.4e-4,0.0035 l 0.18018,4.079487 a 0.1705423,0.19873528 0 0 0 0,0.003 l 0.18085,3.083582 a 0.1705423,0.19873528 0 0 0 0,0.0043 l 0.18052,2.322487 a 0.1705423,0.19873528 0 0 0 6.5e-4,0.0066 l 0.18018,1.696844 a 0.1705423,0.19873528 0 0 0 0.001,0.0093 l 0.18018,1.228 a 0.1705423,0.19873528 0 0 0 0.003,0.01084 l 0.22515,1.146883 a 0.1705423,0.19873528 0 0 0 0.003,0.0093 l 0.36104,1.498128 a 0.1705423,0.19873528 0 0 0 6.4e-4,0.0027 l 0.90192,3.514003 a 0.1705423,0.19873528 0 0 0 0.004,0.01319 l 0.27044,0.833285 a 0.1705423,0.19873528 0 0 0 0.005,0.01514 l 0.27078,0.666007 a 0.1705423,0.19873528 0 0 0 0.008,0.01747 l 0.27078,0.522404 a 0.1705423,0.19873528 0 0 0 0.0106,0.01825 l 0.27078,0.410238 a 0.1705423,0.19873528 0 0 0 0.013,0.01785 l 0.27077,0.3233 a 0.1705423,0.19873528 0 0 0 0.0157,0.01669 l 0.31575,0.292641 a 0.1705423,0.19873528 0 0 0 0.0183,0.01475 l 0.31574,0.222389 a 0.1705423,0.19873528 0 0 0 0.0186,0.01204 l 0.0676,0.03494 0.20317,-0.32951 -0.1219,-0.06365 -0.29775,-0.209583 -0.29842,-0.277503 -0.25612,-0.305836 -0.25879,-0.391997 -0.26112,-0.504163 -0.26444,-0.650094 -0.26578,-0.818925 -0.90026,-3.505464 -0.35937,-1.491529 -0.22314,-1.136793 -0.17919,-1.218295 -0.17985,-1.68947 -0.17985,-2.317052 -0.18018,-3.079313 -0.18018,-4.076382 -0.4513,-15.668633 a 0.1705423,0.19873528 0 0 0 0,-3.87e-4 0.1705423,0.19873528 0 0 0 0,-3.89e-4 0.1705423,0.19873528 0 0 0 0,-3.88e-4 0.1705423,0.19873528 0 0 0 0,-3.88e-4 l -0.0903,-2.532846 a 0.1705423,0.19873528 0 0 0 -3.3e-4,-0.01014 l -0.0453,-0.5821744 a 0.1705423,0.19873528 0 0 0 -0.14055,-0.1707709 z" /><path
       id="path6942"
       style="color:#000000;fill:#ff4700;fill-opacity:1;stroke-width:0.227367;stroke-linecap:square;stroke-linejoin:round;-inkscape-stroke:none"
       d="m 58.901691,51.954653 -0.266778,-0.222815 -0.193506,0.355704 -1.30525,2.073614 -1.308249,2.068952 a 0.1705423,0.1705423 0 0 0 -0.0016,0.003 l -1.168032,1.93706 -8.970894,2.27e-4 h -0.170525 v 0.341051 h 0.170525 l 9.066814,-2.28e-4 a 0.1705423,0.1705423 0 0 0 0.146212,-0.0826 l 1.216991,-2.017993 1.306917,-2.067619 a 0.1705423,0.1705423 0 0 0 6.82e-4,0 l 1.308247,-2.078275 a 0.1705423,0.1705423 0 0 0 0.0053,-0.0093 z" /><path
       id="path10768"
       style="color:#000000;fill:#27009f;fill-opacity:1;stroke:none;stroke-width:12.3178;stroke-linecap:square;stroke-linejoin:round;stroke-dasharray:none;stroke-opacity:1"
       d="m 60.222263,7.340651 a 0.17051635,0.17054291 0 0 0 -0.135221,0.156537 l -0.0453,1.075441 a 0.17051635,0.17054291 0 0 0 0,0.0067 l -0.09059,25.038236 -0.04463,7.856152 -0.0453,3.069454 -0.04496,1.562704 -0.04496,0.959205 -0.08959,1.158373 -0.08926,0.706414 -0.13289,0.705748 -0.17652,0.644132 -0.176188,0.483599 -0.265113,0.588179 -0.206829,0.380351 0.266779,0.222816 0.242466,-0.445964 a 0.17051635,0.17054291 0 0 0 0.0057,-0.01132 L 59.4203,50.897905 a 0.17051635,0.17054291 0 0 0 0.005,-0.01199 l 0.18085,-0.496255 a 0.17051635,0.17054291 0 0 0 0.004,-0.01299 l 0.180184,-0.657787 a 0.17051635,0.17054291 0 0 0 0.0037,-0.01299 l 0.135221,-0.717738 a 0.17051635,0.17054291 0 0 0 0.002,-0.01032 l 0.08993,-0.715407 a 0.17051635,0.17054291 0 0 0 0.0014,-0.008 l 0.09018,-1.165375 a 0.17051635,0.17054291 0 0 0 0,-0.0053 l 0.04496,-0.963201 a 0.17051635,0.17054291 0 0 0 3.33e-4,-0.003 l 0.04496,-1.565369 a 0.17051635,0.17054291 0 0 0 0,-3.33e-4 0.17051635,0.17054291 0 0 0 0,-3.33e-4 0.17051635,0.17054291 0 0 0 0,-3.33e-4 0.17051635,0.17054291 0 0 0 0,-3.33e-4 0.17051635,0.17054291 0 0 0 0,-3.33e-4 0.17051635,0.17054291 0 0 0 0,-3.33e-4 0.17051635,0.17054291 0 0 0 0,-3.33e-4 0.17051635,0.17054291 0 0 0 0,-3.33e-4 l 0.04563,-3.071786 a 0.17051635,0.17054291 0 0 0 0,-3.33e-4 0.17051635,0.17054291 0 0 0 0,-3.33e-4 0.17051635,0.17054291 0 0 0 0,-3.33e-4 0.17051635,0.17054291 0 0 0 0,-3.33e-4 l 0.04496,-7.856818 a 0.17051635,0.17054291 0 0 0 0,-3.33e-4 0.17051635,0.17054291 0 0 0 0,-3.33e-4 l 0.06361,-17.701986 z" /><path
       id="path12440"
       style="color:#000000;fill:#ff4700;fill-opacity:1;stroke:none;stroke-width:12.3178;stroke-linecap:square;stroke-linejoin:round;stroke-dasharray:none;stroke-opacity:1"
       d="m 63.101543,62.579841 -0.09326,0.341717 0.05395,0.03031 a 0.17051635,0.17054291 0 0 0 0.05229,0.01899 l 0.180184,0.03297 a 0.17051635,0.17054291 0 0 0 0.05596,9.66e-4 l 0.180517,-0.02664 a 0.17051635,0.17054291 0 0 0 0.04263,-0.01232 l 0.225813,-0.09792 a 0.17051635,0.17054291 0 0 0 0.02931,-0.01599 L 64.09938,62.66408 a 0.17051635,0.17054291 0 0 0 0.01798,-0.01466 l 0.315737,-0.290426 a 0.17051635,0.17054291 0 0 0 0.01199,-0.01199 l 0.405997,-0.45329 a 0.17051635,0.17054291 0 0 0 0.0077,-0.009 l 0.495589,-0.638138 a 0.17051635,0.17054291 0 0 0 0.0053,-0.006 l 0.676439,-0.961203 a 0.17051635,0.17054291 0 0 0 0.003,-0.004 l 1.037842,-1.572676 a 0.17051635,0.17054291 0 0 0 3.32e-4,-6.45e-4 l 3.427491,-5.247315 a 0.17051635,0.17054291 0 0 0 0.0017,-0.0026 l 0.766697,-1.216658 a 0.17051635,0.17054291 0 0 0 0.0053,-0.009 l 0.405996,-0.741051 a 0.17051635,0.17054291 0 0 0 0.0057,-0.01199 l 0.270775,-0.598504 a 0.17051635,0.17054291 0 0 0 0.005,-0.01266 l 0.180516,-0.498919 a 0.17051635,0.17054291 0 0 0 0.0043,-0.01332 l 0.180184,-0.665448 a 0.17051635,0.17054291 0 0 0 0.0037,-0.01332 l 0.135222,-0.732725 a 0.17051635,0.17054291 0 0 0 0.0014,-0.01 l 0.09059,-0.738721 a 0.17051635,0.17054291 0 0 0 6.45e-4,-0.008 l 0.09026,-1.221653 a 0.17051635,0.17054291 0 0 0 0,-3.33e-4 0.17051635,0.17054291 0 0 0 0,-3.33e-4 0.17051635,0.17054291 0 0 0 0,-3.34e-4 0.17051635,0.17054291 0 0 0 0,-3.32e-4 0.17051635,0.17054291 0 0 0 0,-3.33e-4 0.17051635,0.17054291 0 0 0 0,-3.34e-4 0.17051635,0.17054291 0 0 0 0,-3.33e-4 0.17051635,0.17054291 0 0 0 0,-3.32e-4 0.17051635,0.17054291 0 0 0 0,-3.33e-4 0.17051635,0.17054291 0 0 0 0,-3.34e-4 0.17051635,0.17054291 0 0 0 0,-3.33e-4 0.17051635,0.17054291 0 0 0 0,-3.32e-4 0.17051635,0.17054291 0 0 0 0,-3.34e-4 0.17051635,0.17054291 0 0 0 0,-3.33e-4 0.17051635,0.17054291 0 0 0 0,-3.33e-4 l 0.0453,-1.030479 a 0.17051635,0.17054291 0 0 0 0,-3.33e-4 0.17051635,0.17054291 0 0 0 0,-3.33e-4 0.17051635,0.17054291 0 0 0 0,-3.33e-4 0.17051635,0.17054291 0 0 0 0,-3.33e-4 0.17051635,0.17054291 0 0 0 0,-3.33e-4 0.17051635,0.17054291 0 0 0 0,-3.33e-4 0.17051635,0.17054291 0 0 0 0,-3.33e-4 0.17051635,0.17054291 0 0 0 0,-3.33e-4 l 0.0453,-1.714578 a 0.17051635,0.17054291 0 0 0 0,-3.33e-4 0.17051635,0.17054291 0 0 0 0,-3.33e-4 0.17051635,0.17054291 0 0 0 0,-3.34e-4 0.17051635,0.17054291 0 0 0 0,-3.32e-4 0.17051635,0.17054291 0 0 0 0,-3.33e-4 0.17051635,0.17054291 0 0 0 0,-3.34e-4 0.17051635,0.17054291 0 0 0 0,-3.33e-4 l 0.04496,-3.4961 a 0.17051635,0.17054291 0 0 0 0,-3.34e-4 0.17051635,0.17054291 0 0 0 0,-3.32e-4 0.17051635,0.17054291 0 0 0 0,-3.33e-4 0.17051635,0.17054291 0 0 0 0,-3.34e-4 l 0.0453,-9.213692 a 0.17051635,0.17054291 0 0 0 0,-3.33e-4 0.17051635,0.17054291 0 0 0 0,-3.33e-4 l 0.0453,-16.619884 0.0043,-0.680103 0.01498,0.534224 0.451292,20.122646 a 0.17051635,0.17054291 0 0 0 0,0.0023 l 0.18085,5.085783 a 0.17051635,0.17054291 0 0 0 0,9.67e-4 l 0.675773,16.089323 a 0.17051635,0.17054291 0 0 0 6.45e-4,0.004 l 0.135221,2.075945 a 0.17051635,0.17054291 0 0 0 0,0.0046 l 0.135554,1.460455 a 0.17051635,0.17054291 0 0 0 0.001,0.0067 l 0.134889,1.034808 a 0.17051635,0.17054291 0 0 0 0.0023,0.0087 l 0.134888,0.737721 a 0.17051635,0.17054291 0 0 0 0.003,0.01166 l 0.135221,0.526896 a 0.17051635,0.17054291 0 0 0 0.0053,0.01566 l 0.135221,0.374357 a 0.17051635,0.17054291 0 0 0 0.0087,0.02031 l 0.135554,0.261117 a 0.17051635,0.17054291 0 0 0 0.01632,0.02598 l 0.135221,0.175855 a 0.17051635,0.17054291 0 0 0 0.02698,0.02831 l 0.135554,0.110575 a 0.17051635,0.17054291 0 0 0 0.03964,0.02398 l 0.135221,0.05895 a 0.17051635,0.17054291 0 0 0 0.05262,0.01398 l 0.180517,0.01632 a 0.17051635,0.17054291 0 0 0 0.05163,-0.003 l 0.180183,-0.03897 a 0.17051635,0.17054291 0 0 0 0.03797,-0.01299 l 0.22548,-0.108244 a 0.17051635,0.17054291 0 0 0 0.02631,-0.01566 l 0.270776,-0.196171 a 0.17051635,0.17054291 0 0 0 0.01632,-0.01399 L 77.02009,62.34035 a 0.17051635,0.17054291 0 0 0 0.01132,-0.01099 l 0.40533,-0.456621 a 0.17051635,0.17054291 0 0 0 0.0073,-0.009 l 0.495922,-0.637138 a 0.17051635,0.17054291 0 0 0 0.005,-0.0063 l 0.675923,-0.956493 a 0.17051635,0.17054291 0 0 0 0.0037,-0.004 l 1.082103,-1.630648 0.09425,-0.141882 -0.284098,-0.188843 -0.09426,0.142215 -1.081103,1.628316 -0.672775,0.951211 -0.490594,0.630144 -0.396671,0.44663 -0.302416,0.283431 -0.249126,0.181184 -0.193506,0.09292 -0.135555,0.02931 -0.126895,-0.01166 -0.08859,-0.03863 -0.104247,-0.0836 -0.114571,-0.148211 -0.123242,-0.238133 -0.128893,-0.356038 -0.13189,-0.513241 -0.133122,-0.72744 L 74.814828,59.53903 74.680606,58.084236 74.545052,56.012621 73.868946,39.925295 73.688429,34.841178 73.23747,14.719532 a 0.17051635,0.17054291 0 0 0 0,-3.33e-4 0.17051635,0.17054291 0 0 0 0,-3.34e-4 0.17051635,0.17054291 0 0 0 0,-3.33e-4 L 73.101582,9.900861 a 0.17051635,0.17054291 0 0 0 0,-3.33e-4 0.17051635,0.17054291 0 0 0 0,-3.33e-4 0.17051635,0.17054291 0 0 0 0,-3.33e-4 0.17051635,0.17054291 0 0 0 0,-3.33e-4 0.17051635,0.17054291 0 0 0 0,-3.33e-4 0.17051635,0.17054291 0 0 0 0,-3.33e-4 0.17051635,0.17054291 0 0 0 0,-3.33e-4 0.17051635,0.17054291 0 0 0 0,-3.33e-4 0.17051635,0.17054291 0 0 0 0,-3.33e-4 L 73.011322,7.97346 a 0.17051635,0.17054291 0 0 0 -9.67e-4,-0.0087 l -0.04463,-0.463283 a 0.17051635,0.17054291 0 0 0 -0.339718,0.0053 l -0.0453,0.664449 a 0.17051635,0.17054291 0 0 0 -6.45e-4,0.01066 l -0.04463,6.689785 a 0.17051635,0.17054291 0 0 0 0,6.45e-4 l -0.04529,16.619883 -0.0453,9.212694 -0.04496,3.494102 -0.0453,1.711913 -0.04496,1.02615 -0.08959,1.214992 -0.08893,0.729395 -0.133223,0.720736 -0.17652,0.651459 -0.175854,0.486264 -0.265114,0.586847 -0.400334,0.73106 -0.763367,1.210996 -3.426825,5.245982 -1.035474,1.570032 -0.673109,0.955208 -0.489594,0.629811 -0.396671,0.443632 -0.301084,0.277103 -0.247128,0.171192 -0.189177,0.08226 -0.130558,0.01865 -0.124896,-0.02265 -0.09059,-0.05063 z" /><path
       id="path12445"
       style="color:#000000;fill:#fdff00;fill-opacity:1;stroke:none;stroke-width:12.3178;stroke-linecap:square;stroke-linejoin:round;stroke-dasharray:none;stroke-opacity:1"
       d="m 60.250573,7.33399 a 0.17051635,0.17054291 0 0 0 -0.02831,0.0067 l 0.134888,8.576221 0.0043,-1.158373 0.08693,3.892772 0.270442,12.747096 a 0.17051635,0.17054291 0 0 0 6.45e-4,0.0017 l 0.180184,5.953729 a 0.17051635,0.17054291 0 0 0 0,0.0014 l 0.22548,5.651647 a 0.17051635,0.17054291 0 0 0 0,3.33e-4 l 0.631476,14.374412 a 0.17051635,0.17054291 0 0 0 6.44e-4,0.006 l 0.135221,1.671947 a 0.17051635,0.17054291 0 0 0 6.45e-4,0.006 l 0.135221,1.180355 a 0.17051635,0.17054291 0 0 0 10e-4,0.0073 l 0.135554,0.839304 a 0.17051635,0.17054291 0 0 0 0.002,0.01066 l 0.135554,0.59917 a 0.17051635,0.17054291 0 0 0 0.004,0.01366 l 0.134889,0.426314 a 0.17051635,0.17054291 0 0 0 0.007,0.01865 l 0.135554,0.299751 a 0.17051635,0.17054291 0 0 0 0.01332,0.02365 l 0.135555,0.20483 a 0.17051635,0.17054291 0 0 0 0.02298,0.02798 l 0.134888,0.132223 a 0.17051635,0.17054291 0 0 0 0.03597,0.02664 l 0.0816,0.04563 0.09326,-0.341716 -0.09621,-0.09429 -0.117903,-0.178186 -0.124896,-0.27777 -0.130189,-0.410052 -0.13289,-0.586514 L 62.365819,60.203186 62.231264,59.029492 62.096376,57.36354 61.465233,42.992458 61.23942,37.342477 61.059236,31.390746 60.788794,18.644317 a 0.17051635,0.17054291 0 0 0 0,-3.33e-4 L 60.653239,12.595 a 0.17051635,0.17054291 0 0 0 0,-3.33e-4 0.17051635,0.17054291 0 0 0 0,-3.33e-4 0.17051635,0.17054291 0 0 0 0,-3.33e-4 0.17051635,0.17054291 0 0 0 0,-3.33e-4 l -0.08993,-2.881943 a 0.17051635,0.17054291 0 0 0 -6.44e-4,-0.003 l -0.08995,-1.83781 a 0.17051635,0.17054291 0 0 0 -9.67e-4,-0.01199 L 60.426418,7.483903 A 0.17051635,0.17054291 0 0 0 60.250568,7.33403 Z" /><text
       xml:space="preserve"
       style="font-size:8.18521px;fill:none;stroke:#000000;stroke-width:0.0975407;stroke-linecap:butt;stroke-linejoin:round"
       x="110.34816"
       y="31.269957"
       id="text478"
       inkscape:transform-center-x="-13.746068"
       inkscape:transform-center-y="0.24116063"><tspan
         sodipodi:role="line"
         id="tspan476"
         style="font-size:8.18521px;fill:#000000;fill-opacity:1;stroke-width:0.0975407"
         x="110.34816"
         y="31.269957">Vs</tspan></text><text
       xml:space="preserve"
       style="font-size:3.18314px;fill:#000000;fill-opacity:1;stroke:#000000;stroke-width:0.0292731;stroke-linecap:butt;stroke-linejoin:round;stroke-dasharray:none;stroke-opacity:1"
       x="-33.34874"
       y="59.320278"
       id="text12502"
       transform="matrix(0.12204458,-1.0450101,0.93701737,0.17049012,0,0)"><tspan
         sodipodi:role="line"
         id="tspan12500"
         style="font-size:3.18314px;fill:#000000;fill-opacity:1;stroke-width:0.0292731"
         x="-33.34874"
         y="59.320278">Depolarization phase</tspan></text><text
       xml:space="preserve"
       style="font-size:3.18314px;fill:#000000;fill-opacity:1;stroke:#000000;stroke-width:0.0281808;stroke-linecap:butt;stroke-linejoin:round;stroke-dasharray:none;stroke-opacity:1"
       x="15.819572"
       y="-69.821594"
       id="text12712"
       transform="matrix(0.13257357,1.0996649,-0.89755745,0.09796502,0,0)"><tspan
         sodipodi:role="line"
         id="tspan12710"
         style="font-size:3.18314px;fill:#000000;fill-opacity:1;stroke-width:0.0281808"
         x="15.819572"
         y="-69.821594">Repolarization phase</tspan></text><path
       style="fill:#27009f;fill-opacity:1;stroke:#27009f;stroke-width:0.644505;stroke-linecap:butt;stroke-linejoin:round;stroke-miterlimit:4;stroke-dasharray:none;stroke-opacity:1;marker-end:url(#Arrow5-3)"
       d="M 56.366927,40.649279 58.05504,22.562345"
       id="path12714" /><path
       style="fill:none;fill-opacity:1;stroke:#fdff00;stroke-width:0.644505;stroke-linecap:butt;stroke-linejoin:round;stroke-miterlimit:4;stroke-dasharray:none;stroke-opacity:1;marker-end:url(#Arrow5-3)"
       d="m 62.804379,20.951988 1.302774,18.118766"
       id="path13635" /><text
       xml:space="preserve"
       style="font-size:3.18314px;fill:#000000;fill-opacity:1;stroke:#000000;stroke-width:0.0292731;stroke-linecap:butt;stroke-linejoin:round;stroke-dasharray:none;stroke-opacity:1"
       x="-12.336224"
       y="188.11555"
       id="text13821"
       transform="matrix(0.12204458,-1.0450101,0.93701737,0.17049012,0,0)"><tspan
         sodipodi:role="line"
         id="tspan13819"
         style="font-size:3.18314px;fill:#000000;fill-opacity:1;stroke-width:0.0292731"
         x="-12.336224"
         y="188.11555">Depolarization phase</tspan></text><text
       xml:space="preserve"
       style="font-size:3.18314px;fill:#000000;fill-opacity:1;stroke:#000000;stroke-width:0.0281808;stroke-linecap:butt;stroke-linejoin:round;stroke-dasharray:none;stroke-opacity:1"
       x="27.893536"
       y="-205.35278"
       id="text13825"
       transform="matrix(0.13257357,1.0996649,-0.89755745,0.09796502,0,0)"><tspan
         sodipodi:role="line"
         id="tspan13823"
         style="font-size:3.18314px;fill:#000000;fill-opacity:1;stroke-width:0.0281808"
         x="27.893536"
         y="-205.35278">Repolarization phase</tspan></text><path
       style="fill:none;fill-opacity:1;stroke:#fdff00;stroke-width:0.644505;stroke-linecap:butt;stroke-linejoin:round;stroke-miterlimit:4;stroke-dasharray:none;stroke-opacity:1;marker-end:url(#Arrow5-3)"
       d="m 186.05214,20.951988 1.30278,18.118766"
       id="path13829" /><path
       style="fill:#000000;fill-opacity:1;stroke:#fdff00;stroke-width:1.28901;stroke-linecap:butt;stroke-linejoin:round;stroke-miterlimit:4;stroke-dasharray:none;stroke-opacity:1;marker-end:url(#Arrow5-2)"
       d="m 167.60682,86.118638 -0.006,-13.029652"
       id="path13140" /><text
       xml:space="preserve"
       style="font-style:normal;font-weight:normal;font-size:3.18314px;line-height:1.25;font-family:sans-serif;fill:#000000;fill-opacity:1;stroke:none;stroke-width:0.170525;stroke-linecap:butt;stroke-linejoin:round"
       x="209.19989"
       y="107.27818"
       id="text10892"><tspan
         sodipodi:role="line"
         style="font-size:3.18314px;text-align:center;text-anchor:middle;stroke-width:0.170525"
         x="209.19989"
         y="107.27818"
         id="tspan13856">Passive currents from </tspan><tspan
         sodipodi:role="line"
         style="font-size:3.18314px;text-align:center;text-anchor:middle;stroke-width:0.170525"
         x="209.19989"
         y="111.25711"
         id="tspan75824">nearby compartments </tspan><tspan
         sodipodi:role="line"
         style="font-size:3.18314px;text-align:center;text-anchor:middle;stroke-width:0.170525"
         x="209.19989"
         y="115.23603"
         id="tspan44008">during repolarization </tspan><tspan
         sodipodi:role="line"
         style="font-size:3.18314px;text-align:center;text-anchor:middle;stroke-width:0.170525"
         x="209.61369"
         y="119.21496"
         id="tspan75832">phase increases the DBL </tspan></text><path
       style="fill:none;stroke:#000000;stroke-width:0.644505;stroke-linecap:butt;stroke-linejoin:miter;stroke-miterlimit:4;stroke-dasharray:0.644505, 1.28901;stroke-dashoffset:0;stroke-opacity:1"
       d="M 44.11862,62.994831 H 95.276192"
       id="path17611" /><path
       style="fill:none;stroke:#000000;stroke-width:0.644505;stroke-linecap:butt;stroke-linejoin:miter;stroke-miterlimit:4;stroke-dasharray:none;stroke-dashoffset:0;stroke-opacity:1"
       d="M 44.11862,58.561173 H 95.276192"
       id="path17693" /><text
       xml:space="preserve"
       style="font-style:normal;font-weight:normal;font-size:6.82099px;line-height:1.25;font-family:sans-serif;fill:#000000;fill-opacity:1;stroke:none;stroke-width:0.170525;stroke-linecap:butt;stroke-linejoin:round"
       x="96.786209"
       y="62.523003"
       id="text19831"><tspan
         sodipodi:role="line"
         id="tspan19829"
         style="stroke-width:0.170525"
         x="96.786209"
         y="62.523003">-ve DBL</tspan></text><path
       style="fill:none;stroke:#000000;stroke-width:0.767726;stroke-linecap:butt;stroke-linejoin:miter;stroke-miterlimit:4;stroke-dasharray:none;stroke-dashoffset:0;stroke-opacity:1"
       d="m 150.54794,58.561174 h 72.58885"
       id="path20346" /><path
       style="fill:none;stroke:#000000;stroke-width:0.763532;stroke-linecap:butt;stroke-linejoin:miter;stroke-miterlimit:4;stroke-dasharray:0.763532, 1.52706;stroke-dashoffset:0;stroke-opacity:1"
       d="m 150.54796,50.717011 h 71.79793"
       id="path20348" /><text
       xml:space="preserve"
       style="font-style:normal;font-weight:normal;font-size:6.82099px;line-height:1.25;font-family:sans-serif;fill:#000000;fill-opacity:1;stroke:none;stroke-width:0.170525;stroke-linecap:butt;stroke-linejoin:round"
       x="131.27419"
       y="47.858192"
       id="text20352"><tspan
         sodipodi:role="line"
         id="tspan20350"
         style="stroke-width:0.170525"
         x="131.27419"
         y="47.858192">high DBL</tspan></text><path
       style="fill:none;stroke:#000000;stroke-width:0.644505;stroke-linecap:butt;stroke-linejoin:miter;stroke-miterlimit:4;stroke-dasharray:none;stroke-opacity:1;marker-start:url(#Arrow5-3);marker-end:url(#Arrow5-2)"
       d="m 149.78821,52.062532 v 6.479957"
       id="path20354" /><path
       style="fill:none;stroke:#000000;stroke-width:0.645;stroke-linecap:butt;stroke-linejoin:miter;stroke-miterlimit:4;stroke-dasharray:none;stroke-opacity:1;marker-start:url(#Arrow5-25)"
       d="m 88.661612,65.376081 v 6.479957"
       id="path20354-4" /><path
       id="path12785"
       style="fill:#818181;fill-opacity:0.501961;stroke:none;stroke-width:0.468781;stroke-linecap:butt;stroke-linejoin:round"
       d="m 226.05698,82.4004 a 2.1045176,10.233968 0 0 1 2.10451,10.233964 2.1045176,10.233968 0 0 1 -1.97689,10.213986 v 0.0494 h -25.25421 v -0.0497 a 2.1045176,10.233969 0 0 0 1.97689,-10.213699 2.1045176,10.233969 0 0 0 -1.95162,-10.204555 h 24.94368 a 2.1045176,10.233968 0 0 1 0.15764,-0.02941 z" /><path
       style="fill:none;stroke:#000000;stroke-width:1.05838;stroke-linecap:butt;stroke-linejoin:miter;stroke-miterlimit:4;stroke-dasharray:1.05838, 3.17513;stroke-dashoffset:0;stroke-opacity:1"
       d="m 224.04969,93.459972 h 11.49628"
       id="path1870" /><path
       id="path12783"
       style="fill:#818181;fill-opacity:0.501961;stroke:none;stroke-width:0.468781;stroke-linecap:butt;stroke-linejoin:round"
       d="m 200.47818,82.4004 a 2.1045176,10.233968 0 0 1 2.10452,10.233964 2.1045176,10.233968 0 0 1 -1.97689,10.213986 v 0.0494 h -25.25422 v -0.0497 a 2.1045176,10.233969 0 0 0 1.97689,-10.213699 2.1045176,10.233969 0 0 0 -1.95161,-10.204555 h 24.94367 a 2.1045176,10.233968 0 0 1 0.15764,-0.02939 z" /><path
       id="path6511"
       style="fill:#818181;fill-opacity:0.501961;stroke:none;stroke-width:0.540614;stroke-linecap:butt;stroke-linejoin:round"
       d="m 174.89937,79.047859 a 2.1045176,13.610639 0 0 1 2.10451,13.610635 2.1045176,13.610639 0 0 1 -1.97688,13.584056 v 0.0657 h -25.25422 v -0.0661 a 2.1045176,13.610639 0 0 0 1.97689,-13.583667 2.1045176,13.610639 0 0 0 -1.95161,-13.571526 h 24.94367 a 2.1045176,13.610639 0 0 1 0.15764,-0.03912 z" /><text
       xml:space="preserve"
       style="font-style:normal;font-weight:normal;font-size:3.18314px;line-height:1.25;font-family:sans-serif;fill:#000000;fill-opacity:1;stroke:none;stroke-width:0.170525;stroke-linecap:butt;stroke-linejoin:round"
       x="82.621567"
       y="87.200813"
       id="text96569"><tspan
         sodipodi:role="line"
         style="font-size:3.18314px;stroke-width:0.170525"
         x="82.621567"
         y="87.200813"
         id="tspan109393"><tspan
   style="fill:#0000ff;stroke-width:0.170525"
   id="tspan120975">Red arrows</tspan> represent currents during</tspan><tspan
         sodipodi:role="line"
         style="font-size:3.18314px;stroke-width:0.170525"
         x="82.621567"
         y="91.179741"
         id="tspan109399">depolarization phase of AP.</tspan><tspan
         sodipodi:role="line"
         style="font-size:3.18314px;stroke-width:0.170525"
         x="82.621567"
         y="95.158661"
         id="tspan109403"><tspan
   style="fill:#ffff00;stroke-width:0.170525"
   id="tspan150639">Green arrows</tspan> represent currents during </tspan><tspan
         sodipodi:role="line"
         style="font-size:3.18314px;stroke-width:0.170525"
         x="82.621567"
         y="99.137589"
         id="tspan109405">repolarization phase of AP.</tspan></text><text
       xml:space="preserve"
       style="font-size:7.05556px;fill:#24ef00;stroke:#00ca29;stroke-width:0.368812;stroke-linecap:butt;stroke-linejoin:round"
       x="58.134335"
       y="94.961418"
       id="text540"><tspan
         sodipodi:role="line"
         id="tspan538"
         style="font-size:7.05556px;fill:#000000;stroke:none;stroke-width:0.368812"
         x="58.134335"
         y="94.961418">Soma</tspan></text><text
       xml:space="preserve"
       style="font-size:7.65345px;fill:#24ef00;stroke:#00ca29;stroke-width:0.368812;stroke-linecap:butt;stroke-linejoin:round"
       x="153.38435"
       y="94.961418"
       id="text1263"><tspan
         sodipodi:role="line"
         id="tspan1261"
         style="fill:#000000;stroke:none;stroke-width:0.368812"
         x="153.38435"
         y="94.961418">Soma</tspan></text><text
       xml:space="preserve"
       style="font-size:7.05556px;fill:#000000;stroke:none;stroke-width:0.612;stroke-linecap:butt;stroke-linejoin:round"
       x="192.02069"
       y="95.175529"
       id="text1267"><tspan
         sodipodi:role="line"
         style="font-size:7.05556px;stroke-width:0.612"
         x="192.02069"
         y="95.175529"
         id="tspan1269">Dendrite</tspan></text><path
       style="fill:none;stroke:#000000;stroke-width:0.645;stroke-linecap:butt;stroke-linejoin:miter;stroke-miterlimit:4;stroke-dasharray:none;stroke-opacity:1;marker-start:url(#Arrow5-25)"
       d="m 88.956172,56.47671 -0.0897,-6.479336"
       id="path1446" /><path
       style="fill:#27009f;fill-opacity:1;stroke:#27009f;stroke-width:0.644505;stroke-linecap:butt;stroke-linejoin:round;stroke-miterlimit:4;stroke-dasharray:none;stroke-opacity:1;marker-end:url(#Arrow5-3)"
       d="m 180.192,40.649279 1.68811,-18.086934"
       id="path1733" /><path
       style="fill:none;stroke:#000000;stroke-width:0.912244;stroke-linecap:butt;stroke-linejoin:miter;stroke-miterlimit:4;stroke-dasharray:0.912244, 1.82448;stroke-dashoffset:0;stroke-opacity:1"
       d="M 135.55105,173.98763 H 238.04064"
       id="path20348-4" /><path
       style="fill:none;stroke:#000000;stroke-width:0.974858;stroke-linecap:butt;stroke-linejoin:miter;stroke-miterlimit:4;stroke-dasharray:0.974858, 1.94971;stroke-dashoffset:0;stroke-opacity:1"
       d="M 50.619793,189.59805 H 167.66147"
       id="path9056" /></g></svg>
